<svg xmlns="http://www.w3.org/2000/svg" xmlns:xlink="http://www.w3.org/1999/xlink" xmlns:lucid="lucid" width="1264.5" height="561.21"><g transform="translate(-137.99999986842337 -209.95417160001415)" lucid:page-tab-id="VIv.i~XZ.eoX"><path d="M0 0h1500v1000H0z" fill="#fff"/><path d="M180.5 235.67a5 5 0 0 1 5-5h310a5 5 0 0 1 5 5v190a5 5 0 0 1-5 5h-310a5 5 0 0 1-5-5z" fill="#fff"/><path d="M180.5 270.67v-35a5 5 0 0 1 5-5h310a5 5 0 0 1 5 5v35" fill="#cfe4ff"/><path d="M180.5 235.67a5 5 0 0 1 5-5h310a5 5 0 0 1 5 5v190a5 5 0 0 1-5 5h-310a5 5 0 0 1-5-5zM180.5 270.67h320M240.5 270.67v160M364.48 270.67v160" stroke="#3a414a" fill="none"/><use xlink:href="#a" transform="matrix(1,0,0,1,190.49999210526323,230.66666666666669) translate(128.025 23.6)"/><use xlink:href="#b" transform="matrix(1,0,0,1,185.49999210526323,273.1666666666667) translate(13 17.1)"/><use xlink:href="#c" transform="matrix(1,0,0,1,245.49999210526323,273.1666666666667) translate(0 17.1)"/><use xlink:href="#d" transform="matrix(1,0,0,1,369.48297354147087,273.1666666666667) translate(0 17.1)"/><use xlink:href="#e" transform="matrix(1,0,0,1,245.49999210526323,305.1666666666667) translate(0 17.1)"/><use xlink:href="#f" transform="matrix(1,0,0,1,369.48297354147087,305.1666666666667) translate(0 17.1)"/><use xlink:href="#g" transform="matrix(1,0,0,1,245.49999210526323,337.1666666666667) translate(0 17.1)"/><use xlink:href="#f" transform="matrix(1,0,0,1,369.48297354147087,337.1666666666667) translate(0 17.1)"/><use xlink:href="#h" transform="matrix(1,0,0,1,245.49999210526323,369.1666666666667) translate(0 17.1)"/><use xlink:href="#i" transform="matrix(1,0,0,1,369.48297354147087,369.1666666666667) translate(0 17.1)"/><use xlink:href="#j" transform="matrix(1,0,0,1,245.49999210526323,401.1666666666667) translate(0 17.1)"/><use xlink:href="#f" transform="matrix(1,0,0,1,369.48297354147087,401.1666666666667) translate(0 17.1)"/><path d="M180.5 479.67a5 5 0 0 1 5-5h310a5 5 0 0 1 5 5v126a5 5 0 0 1-5 5h-310a5 5 0 0 1-5-5z" fill="#fff"/><path d="M180.5 514.67v-35a5 5 0 0 1 5-5h310a5 5 0 0 1 5 5v35" fill="#cfe4ff"/><path d="M180.5 479.67a5 5 0 0 1 5-5h310a5 5 0 0 1 5 5v126a5 5 0 0 1-5 5h-310a5 5 0 0 1-5-5zM180.5 514.67h320M240.5 514.67v96M364.98 514.67v96" stroke="#282c33" fill="none"/><use xlink:href="#k" transform="matrix(1,0,0,1,190.49999210526323,474.66666666666674) translate(126.55 23.6)"/><use xlink:href="#l" transform="matrix(1,0,0,1,185.49999210526323,517.1666666666667) translate(13.524999999999999 17.1)"/><use xlink:href="#m" transform="matrix(1,0,0,1,245.49999210526323,517.1666666666667) translate(0 17.1)"/><use xlink:href="#n" transform="matrix(1,0,0,1,369.9815511443795,517.1666666666667) translate(0 17.1)"/><use xlink:href="#l" transform="matrix(1,0,0,1,185.49999210526323,549.1666666666667) translate(13.524999999999999 17.1)"/><use xlink:href="#o" transform="matrix(1,0,0,1,245.49999210526323,549.1666666666667) translate(0 17.1)"/><use xlink:href="#n" transform="matrix(1,0,0,1,369.9815511443795,549.1666666666667) translate(0 17.1)"/><use xlink:href="#p" transform="matrix(1,0,0,1,245.49999210526323,581.1666666666667) translate(0 17.1)"/><use xlink:href="#q" transform="matrix(1,0,0,1,369.9815511443795,581.1666666666667) translate(0 17.1)"/><path d="M1040 447.67a5 5 0 0 1 5-5h310a5 5 0 0 1 5 5v158a5 5 0 0 1-5 5h-310a5 5 0 0 1-5-5z" fill="#fff"/><path d="M1040 482.67v-35a5 5 0 0 1 5-5h310a5 5 0 0 1 5 5v35" fill="#cfe4ff"/><path d="M1040 447.67a5 5 0 0 1 5-5h310a5 5 0 0 1 5 5v158a5 5 0 0 1-5 5h-310a5 5 0 0 1-5-5zM1040 482.67h320M1113.78 482.67v128M1223.98 482.67v128" stroke="#282c33" fill="none"/><use xlink:href="#r" transform="matrix(1,0,0,1,1050,442.66666666666674) translate(121.07499999999999 23.6)"/><use xlink:href="#s" transform="matrix(1,0,0,1,1045,485.16666666666674) translate(3.5249999999999986 17.1)"/><use xlink:href="#t" transform="matrix(1,0,0,1,1045,485.16666666666674) translate(37.525 17.1)"/><use xlink:href="#m" transform="matrix(1,0,0,1,1118.7759086194392,485.16666666666674) translate(0 17.1)"/><use xlink:href="#u" transform="matrix(1,0,0,1,1228.9829814362076,485.16666666666674) translate(0 17.1)"/><use xlink:href="#s" transform="matrix(1,0,0,1,1045,517.1666666666667) translate(3.5249999999999986 17.1)"/><use xlink:href="#t" transform="matrix(1,0,0,1,1045,517.1666666666667) translate(37.525 17.1)"/><use xlink:href="#v" transform="matrix(1,0,0,1,1118.7759086194392,517.1666666666667) translate(0 17.1)"/><use xlink:href="#n" transform="matrix(1,0,0,1,1228.9829814362076,517.1666666666667) translate(0 17.1)"/><use xlink:href="#s" transform="matrix(1,0,0,1,1045,549.1666666666667) translate(3.5249999999999986 17.1)"/><use xlink:href="#t" transform="matrix(1,0,0,1,1045,549.1666666666667) translate(37.525 17.1)"/><use xlink:href="#w" transform="matrix(1,0,0,1,1118.7759086194392,549.1666666666667) translate(0 17.1)"/><use xlink:href="#n" transform="matrix(1,0,0,1,1228.9829814362076,549.1666666666667) translate(0 17.1)"/><use xlink:href="#x" transform="matrix(1,0,0,1,1118.7759086194392,581.1666666666667) translate(0 17.1)"/><use xlink:href="#y" transform="matrix(1,0,0,1,1228.9829814362076,581.1666666666667) translate(0 17.1)"/><path d="M620.5 379.67a5 5 0 0 1 5-5h310a5 5 0 0 1 5 5v158a5 5 0 0 1-5 5h-310a5 5 0 0 1-5-5z" fill="#fff"/><path d="M620.5 414.67v-35a5 5 0 0 1 5-5h310a5 5 0 0 1 5 5v35" fill="#cfe4ff"/><path d="M620.5 379.67a5 5 0 0 1 5-5h310a5 5 0 0 1 5 5v158a5 5 0 0 1-5 5h-310a5 5 0 0 1-5-5zM620.5 414.67h320M694.28 414.67v128M804.48 414.67v128" stroke="#282c33" fill="none"/><use xlink:href="#z" transform="matrix(1,0,0,1,630.4999921052632,374.6666666666667) translate(106.57499999999999 23.6)"/><use xlink:href="#s" transform="matrix(1,0,0,1,625.4999921052632,417.1666666666667) translate(3.5249999999999986 17.1)"/><use xlink:href="#t" transform="matrix(1,0,0,1,625.4999921052632,417.1666666666667) translate(37.525 17.1)"/><use xlink:href="#v" transform="matrix(1,0,0,1,699.2759007247024,417.1666666666667) translate(0 17.1)"/><use xlink:href="#u" transform="matrix(1,0,0,1,809.4829735414709,417.1666666666667) translate(0 17.1)"/><use xlink:href="#s" transform="matrix(1,0,0,1,625.4999921052632,449.1666666666667) translate(3.5249999999999986 17.1)"/><use xlink:href="#t" transform="matrix(1,0,0,1,625.4999921052632,449.1666666666667) translate(37.525 17.1)"/><use xlink:href="#m" transform="matrix(1,0,0,1,699.2759007247024,449.1666666666667) translate(0 17.1)"/><use xlink:href="#n" transform="matrix(1,0,0,1,809.4829735414709,449.1666666666667) translate(0 17.1)"/><use xlink:href="#A" transform="matrix(1,0,0,1,699.2759007247024,481.1666666666667) translate(0 17.1)"/><use xlink:href="#q" transform="matrix(1,0,0,1,809.4829735414709,481.1666666666667) translate(0 17.1)"/><use xlink:href="#B" transform="matrix(1,0,0,1,699.2759007247024,513.1666666666667) translate(0 17.1)"/><use xlink:href="#q" transform="matrix(1,0,0,1,809.4829735414709,513.1666666666667) translate(0 17.1)"/><path d="M1040 235.45a5 5 0 0 1 5-5h310a5 5 0 0 1 5 5v126a5 5 0 0 1-5 5h-310a5 5 0 0 1-5-5z" fill="#fff"/><path d="M1040 270.45v-35a5 5 0 0 1 5-5h310a5 5 0 0 1 5 5v35" fill="#cfe4ff"/><path d="M1040 235.45a5 5 0 0 1 5-5h310a5 5 0 0 1 5 5v126a5 5 0 0 1-5 5h-310a5 5 0 0 1-5-5zM1040 270.45h320M1100 270.45v96M1224.48 270.45v96" stroke="#282c33" fill="none"/><use xlink:href="#C" transform="matrix(1,0,0,1,1050,230.45417160001415) translate(103.675 23.6)"/><use xlink:href="#D" transform="matrix(1,0,0,1,1045,272.95417160001415) translate(13 17.1)"/><use xlink:href="#w" transform="matrix(1,0,0,1,1105,272.95417160001415) translate(0 17.1)"/><use xlink:href="#n" transform="matrix(1,0,0,1,1229.4815590391163,272.95417160001415) translate(0 17.1)"/><use xlink:href="#E" transform="matrix(1,0,0,1,1105,304.95417160001415) translate(0 17.1)"/><use xlink:href="#q" transform="matrix(1,0,0,1,1229.4815590391163,304.95417160001415) translate(0 17.1)"/><use xlink:href="#F" transform="matrix(1,0,0,1,1105,336.95417160001415) translate(0 17.1)"/><use xlink:href="#q" transform="matrix(1,0,0,1,1229.4815590391163,336.95417160001415) translate(0 17.1)"/><path d="M620.5 235.67a5 5 0 0 1 5-5h310a5 5 0 0 1 5 5v94a5 5 0 0 1-5 5h-310a5 5 0 0 1-5-5z" fill="#fff"/><path d="M620.5 270.67v-35a5 5 0 0 1 5-5h310a5 5 0 0 1 5 5v35" fill="#cfe4ff"/><path d="M620.5 235.67a5 5 0 0 1 5-5h310a5 5 0 0 1 5 5v94a5 5 0 0 1-5 5h-310a5 5 0 0 1-5-5zM620.5 270.67h320M680.5 270.67v64M804.98 270.67v64" stroke="#282c33" fill="none"/><use xlink:href="#G" transform="matrix(1,0,0,1,630.4999921052632,230.66666666666669) translate(121.05 23.6)"/><use xlink:href="#D" transform="matrix(1,0,0,1,625.4999921052632,273.1666666666667) translate(13 17.1)"/><use xlink:href="#m" transform="matrix(1,0,0,1,685.4999921052632,273.1666666666667) translate(0 17.1)"/><use xlink:href="#n" transform="matrix(1,0,0,1,809.9815511443795,273.1666666666667) translate(0 17.1)"/><use xlink:href="#H" transform="matrix(1,0,0,1,685.4999921052632,305.1666666666667) translate(0 17.1)"/><use xlink:href="#q" transform="matrix(1,0,0,1,809.9815511443795,305.1666666666667) translate(0 17.1)"/><path d="M620.5 587.67a5 5 0 0 1 5-5h310a5 5 0 0 1 5 5v158a5 5 0 0 1-5 5h-310a5 5 0 0 1-5-5z" fill="#fff"/><path d="M620.5 622.67v-35a5 5 0 0 1 5-5h310a5 5 0 0 1 5 5v35" fill="#cfe4ff"/><path d="M620.5 587.67a5 5 0 0 1 5-5h310a5 5 0 0 1 5 5v158a5 5 0 0 1-5 5h-310a5 5 0 0 1-5-5zM620.5 622.67h320M680.5 622.67v128M804.98 622.67v128" stroke="#282c33" fill="none"/><use xlink:href="#I" transform="matrix(1,0,0,1,630.4999921052632,582.6666666666667) translate(121.05 23.6)"/><use xlink:href="#D" transform="matrix(1,0,0,1,625.4999921052632,625.1666666666667) translate(13 17.1)"/><use xlink:href="#v" transform="matrix(1,0,0,1,685.4999921052632,625.1666666666667) translate(0 17.1)"/><use xlink:href="#n" transform="matrix(1,0,0,1,809.9815511443795,625.1666666666667) translate(0 17.1)"/><use xlink:href="#J" transform="matrix(1,0,0,1,685.4999921052632,657.1666666666667) translate(0 17.1)"/><use xlink:href="#q" transform="matrix(1,0,0,1,809.9815511443795,657.1666666666667) translate(0 17.1)"/><use xlink:href="#K" transform="matrix(1,0,0,1,685.4999921052632,689.1666666666667) translate(0 17.1)"/><use xlink:href="#L" transform="matrix(1,0,0,1,809.9815511443795,689.1666666666667) translate(0 17.1)"/><use xlink:href="#M" transform="matrix(1,0,0,1,685.4999921052632,721.1666666666667) translate(0 17.1)"/><use xlink:href="#q" transform="matrix(1,0,0,1,809.9815511443795,721.1666666666667) translate(0 17.1)"/><path d="M160 250.67h-14a6 6 0 0 0-6 6v232.28a.5.5 0 0 0 .5.5" stroke="#3a414a" fill="none"/><path d="M160 240.67v20M180 250.67h-20" stroke="#3a414a" fill="#fff"/><path d="M179.78 499.45l-20-10 20-10" stroke="#3a414a" fill="#fff" fill-opacity="0"/><path d="M179.78 489.45h-20M159.78 489.45c0 5.52-4.48 10-10 10-5.53 0-10-4.48-10-10s4.47-10 10-10c5.52 0 10 4.48 10 10" stroke="#3a414a" fill="#fff"/><path d="M600 250.67h-33.5a6 6 0 0 0-6 6v231.85a6 6 0 0 1-6 6h-14" stroke="#3a414a" fill="none"/><path d="M600 240.67v20M620 250.67h-20" stroke="#3a414a" fill="#fff"/><path d="M501.22 484.52l20 10-20 10" stroke="#3a414a" fill="#fff" fill-opacity="0"/><path d="M501.22 494.52h20M541.22 494.52c0 5.52-4.47 10-10 10-5.52 0-10-4.48-10-10 0-5.53 4.48-10 10-10 5.53 0 10 4.47 10 10" stroke="#3a414a" fill="#fff"/><path d="M600 602.67h-14a6 6 0 0 1-6-6V392.43a.5.5 0 0 1 .5-.5" stroke="#3a414a" fill="none"/><path d="M600 592.67v20M620 602.67h-20" stroke="#3a414a" fill="#fff"/><path d="M619.78 401.93l-20-10 20-10" stroke="#3a414a" fill="#fff" fill-opacity="0"/><path d="M619.78 391.93h-20M599.78 391.93c0 5.52-4.48 10-10 10-5.53 0-10-4.48-10-10s4.47-10 10-10c5.52 0 10 4.48 10 10" stroke="#3a414a" fill="#fff"/><path d="M961 462.68h29.14a.1.1 0 0 0 .1-.1.1.1 0 0 1 .12-.1h9.64" stroke="#3a414a" fill="none"/><path d="M961 472.68v-20M941 462.68h20" stroke="#3a414a" fill="#fff"/><path d="M1039.28 472.47l-20-10 20-10" stroke="#3a414a" fill="#fff" fill-opacity="0"/><path d="M1039.28 462.47h-20M1019.28 462.47c0 5.52-4.48 10-10 10-5.53 0-10-4.48-10-10 0-5.53 4.47-10 10-10 5.52 0 10 4.47 10 10" stroke="#3a414a" fill="#fff"/><path d="M1380.5 250.45h14a6 6 0 0 1 6 6V465.8a.5.5 0 0 1-.5.5" stroke="#3a414a" fill="none"/><path d="M1380.5 260.45v-20M1360.5 250.45h20" stroke="#3a414a" fill="#fff"/><path d="M1360.72 456.3l20 10-20 10" stroke="#3a414a" fill="#fff" fill-opacity="0"/><path d="M1360.72 466.3h20M1400.72 466.3c0 5.5-4.47 10-10 10-5.52 0-10-4.5-10-10 0-5.54 4.48-10 10-10 5.53 0 10 4.46 10 10" stroke="#3a414a" fill="#fff"/><path d="M961 250.57h14a6 6 0 0 1 6 6v137.4a.5.5 0 0 1-.5.5" stroke="#000" fill="none"/><path d="M961 260.57v-20M941 250.57h20" stroke="#000" fill="#fff"/><path d="M941.22 384.47l20 10-20 10" stroke="#000" fill="#fff" fill-opacity="0"/><path d="M941.22 394.47h20M981.22 394.47c0 5.52-4.47 10-10 10-5.52 0-10-4.48-10-10 0-5.53 4.48-10 10-10 5.53 0 10 4.47 10 10" stroke="#000" fill="#fff"/><defs><path fill="#3a414a" d="M84 4C-5 8 30-112 23-190h32v120c0 31 7 50 39 49 72-2 45-101 50-169h31l1 190h-30c-1-10 1-25-2-33-11 22-28 36-60 37" id="N"/><path fill="#3a414a" d="M135-143c-3-34-86-38-87 0 15 53 115 12 119 90S17 21 10-45l28-5c4 36 97 45 98 0-10-56-113-15-118-90-4-57 82-63 122-42 12 7 21 19 24 35" id="O"/><path fill="#3a414a" d="M100-194c63 0 86 42 84 106H49c0 40 14 67 53 68 26 1 43-12 49-29l28 8c-11 28-37 45-77 45C44 4 14-33 15-96c1-61 26-98 85-98zm52 81c6-60-76-77-97-28-3 7-6 17-6 28h103" id="P"/><path fill="#3a414a" d="M114-163C36-179 61-72 57 0H25l-1-190h30c1 12-1 29 2 39 6-27 23-49 58-41v29" id="Q"/><g id="a"><use transform="matrix(0.05,0,0,0.05,0,0)" xlink:href="#N"/><use transform="matrix(0.05,0,0,0.05,10,0)" xlink:href="#O"/><use transform="matrix(0.05,0,0,0.05,19,0)" xlink:href="#P"/><use transform="matrix(0.05,0,0,0.05,29,0)" xlink:href="#Q"/><use transform="matrix(0.05,0,0,0.05,34.95,0)" xlink:href="#O"/></g><path fill="#3a414a" d="M30-248c87 1 191-15 191 75 0 78-77 80-158 76V0H30v-248zm33 125c57 0 124 11 124-50 0-59-68-47-124-48v98" id="R"/><path fill="#3a414a" d="M194 0L95-120 63-95V0H30v-248h33v124l119-124h40L117-140 236 0h-42" id="S"/><g id="b"><use transform="matrix(0.05,0,0,0.05,0,0)" xlink:href="#R"/><use transform="matrix(0.05,0,0,0.05,12,0)" xlink:href="#S"/></g><path fill="#3a414a" d="M-5 72V49h209v23H-5" id="T"/><path fill="#3a414a" d="M24-231v-30h32v30H24zM24 0v-190h32V0H24" id="U"/><path fill="#3a414a" d="M85-194c31 0 48 13 60 33l-1-100h32l1 261h-30c-2-10 0-23-3-31C134-8 116 4 85 4 32 4 16-35 15-94c0-66 23-100 70-100zm9 24c-40 0-46 34-46 75 0 40 6 74 45 74 42 0 51-32 51-76 0-42-9-74-50-73" id="V"/><g id="c"><use transform="matrix(0.05,0,0,0.05,0,0)" xlink:href="#N"/><use transform="matrix(0.05,0,0,0.05,10,0)" xlink:href="#T"/><use transform="matrix(0.05,0,0,0.05,20,0)" xlink:href="#U"/><use transform="matrix(0.05,0,0,0.05,23.95,0)" xlink:href="#V"/></g><path fill="#3a414a" d="M117-194c89-4 53 116 60 194h-32v-121c0-31-8-49-39-48C34-167 62-67 57 0H25l-1-190h30c1 10-1 24 2 32 11-22 29-35 61-36" id="W"/><path fill="#3a414a" d="M59-47c-2 24 18 29 38 22v24C64 9 27 4 27-40v-127H5v-23h24l9-43h21v43h35v23H59v120" id="X"/><g id="d"><use transform="matrix(0.05,0,0,0.05,0,0)" xlink:href="#U"/><use transform="matrix(0.05,0,0,0.05,3.95,0)" xlink:href="#W"/><use transform="matrix(0.05,0,0,0.05,13.949999999999998,0)" xlink:href="#X"/></g><path fill="#3a414a" d="M210-169c-67 3-38 105-44 169h-31v-121c0-29-5-50-35-48C34-165 62-65 56 0H25l-1-190h30c1 10-1 24 2 32 10-44 99-50 107 0 11-21 27-35 58-36 85-2 47 119 55 194h-31v-121c0-29-5-49-35-48" id="Y"/><path fill="#3a414a" d="M141-36C126-15 110 5 73 4 37 3 15-17 15-53c-1-64 63-63 125-63 3-35-9-54-41-54-24 1-41 7-42 31l-33-3c5-37 33-52 76-52 45 0 72 20 72 64v82c-1 20 7 32 28 27v20c-31 9-61-2-59-35zM48-53c0 20 12 33 32 33 41-3 63-29 60-74-43 2-92-5-92 41" id="Z"/><path fill="#3a414a" d="M24 0v-261h32V0H24" id="aa"/><g id="e"><use transform="matrix(0.05,0,0,0.05,0,0)" xlink:href="#P"/><use transform="matrix(0.05,0,0,0.05,10,0)" xlink:href="#Y"/><use transform="matrix(0.05,0,0,0.05,24.950000000000003,0)" xlink:href="#Z"/><use transform="matrix(0.05,0,0,0.05,34.95,0)" xlink:href="#U"/><use transform="matrix(0.05,0,0,0.05,38.900000000000006,0)" xlink:href="#aa"/></g><path fill="#3a414a" d="M108 0H70L1-190h34L89-25l56-165h34" id="ab"/><path fill="#3a414a" d="M96-169c-40 0-48 33-48 73s9 75 48 75c24 0 41-14 43-38l32 2c-6 37-31 61-74 61-59 0-76-41-82-99-10-93 101-131 147-64 4 7 5 14 7 22l-32 3c-4-21-16-35-41-35" id="ac"/><path fill="#3a414a" d="M106-169C34-169 62-67 57 0H25v-261h32l-1 103c12-21 28-36 61-36 89 0 53 116 60 194h-32v-121c2-32-8-49-39-48" id="ad"/><path fill="#3a414a" d="M87 75C49 33 22-17 22-94c0-76 28-126 65-167h31c-38 41-64 92-64 168S80 34 118 75H87" id="ae"/><path fill="#3a414a" d="M101-251c82-7 93 87 43 132L82-64C71-53 59-42 53-27h129V0H18c2-99 128-94 128-182 0-28-16-43-45-43s-46 15-49 41l-32-3c6-41 34-60 81-64" id="af"/><path fill="#3a414a" d="M54-142c48-35 137-8 131 61C196 18 31 33 14-55l32-4c7 23 22 37 52 37 35-1 51-22 54-58 4-55-73-65-99-34H22l8-134h141v27H59" id="ag"/><path fill="#3a414a" d="M33-261c38 41 65 92 65 168S71 34 33 75H2C39 34 66-17 66-93S39-220 2-261h31" id="ah"/><g id="f"><use transform="matrix(0.05,0,0,0.05,0,0)" xlink:href="#ab"/><use transform="matrix(0.05,0,0,0.05,9,0)" xlink:href="#Z"/><use transform="matrix(0.05,0,0,0.05,19,0)" xlink:href="#Q"/><use transform="matrix(0.05,0,0,0.05,24.95,0)" xlink:href="#ac"/><use transform="matrix(0.05,0,0,0.05,33.95,0)" xlink:href="#ad"/><use transform="matrix(0.05,0,0,0.05,43.95,0)" xlink:href="#Z"/><use transform="matrix(0.05,0,0,0.05,53.95,0)" xlink:href="#Q"/><use transform="matrix(0.05,0,0,0.05,59.900000000000006,0)" xlink:href="#ae"/><use transform="matrix(0.05,0,0,0.05,65.85000000000001,0)" xlink:href="#af"/><use transform="matrix(0.05,0,0,0.05,75.85000000000001,0)" xlink:href="#ag"/><use transform="matrix(0.05,0,0,0.05,85.85000000000001,0)" xlink:href="#ag"/><use transform="matrix(0.05,0,0,0.05,95.85000000000001,0)" xlink:href="#ah"/></g><g id="g"><use transform="matrix(0.05,0,0,0.05,0,0)" xlink:href="#W"/><use transform="matrix(0.05,0,0,0.05,10,0)" xlink:href="#Z"/><use transform="matrix(0.05,0,0,0.05,20,0)" xlink:href="#Y"/><use transform="matrix(0.05,0,0,0.05,34.95,0)" xlink:href="#P"/></g><path fill="#3a414a" d="M141 0L90-78 38 0H4l68-98-65-92h35l48 74 47-74h35l-64 92 68 98h-35" id="ai"/><path fill="#3a414a" d="M115-194c55 1 70 41 70 98S169 2 115 4C84 4 66-9 55-30l1 105H24l-1-265h31l2 30c10-21 28-34 59-34zm-8 174c40 0 45-34 45-75s-6-73-45-74c-42 0-51 32-51 76 0 43 10 73 51 73" id="aj"/><g id="h"><use transform="matrix(0.05,0,0,0.05,0,0)" xlink:href="#P"/><use transform="matrix(0.05,0,0,0.05,10,0)" xlink:href="#ai"/><use transform="matrix(0.05,0,0,0.05,19,0)" xlink:href="#aj"/><use transform="matrix(0.05,0,0,0.05,29,0)" xlink:href="#P"/><use transform="matrix(0.05,0,0,0.05,39,0)" xlink:href="#Q"/><use transform="matrix(0.05,0,0,0.05,44.95,0)" xlink:href="#U"/><use transform="matrix(0.05,0,0,0.05,48.900000000000006,0)" xlink:href="#P"/><use transform="matrix(0.05,0,0,0.05,58.900000000000006,0)" xlink:href="#W"/><use transform="matrix(0.05,0,0,0.05,68.9,0)" xlink:href="#ac"/><use transform="matrix(0.05,0,0,0.05,77.9,0)" xlink:href="#P"/></g><g id="i"><use transform="matrix(0.05,0,0,0.05,0,0)" xlink:href="#U"/><use transform="matrix(0.05,0,0,0.05,3.95,0)" xlink:href="#W"/><use transform="matrix(0.05,0,0,0.05,13.949999999999998,0)" xlink:href="#X"/></g><path fill="#3a414a" d="M115-194c53 0 69 39 70 98 0 66-23 100-70 100C84 3 66-7 56-30L54 0H23l1-261h32v101c10-23 28-34 59-34zm-8 174c40 0 45-34 45-75 0-40-5-75-45-74-42 0-51 32-51 76 0 43 10 73 51 73" id="ak"/><g id="j"><use transform="matrix(0.05,0,0,0.05,0,0)" xlink:href="#aa"/><use transform="matrix(0.05,0,0,0.05,3.95,0)" xlink:href="#Z"/><use transform="matrix(0.05,0,0,0.05,13.949999999999998,0)" xlink:href="#ak"/></g><path fill="#333" d="M24 0v-261h32V0H24" id="al"/><path fill="#333" d="M141-36C126-15 110 5 73 4 37 3 15-17 15-53c-1-64 63-63 125-63 3-35-9-54-41-54-24 1-41 7-42 31l-33-3c5-37 33-52 76-52 45 0 72 20 72 64v82c-1 20 7 32 28 27v20c-31 9-61-2-59-35zM48-53c0 20 12 33 32 33 41-3 63-29 60-74-43 2-92-5-92 41" id="am"/><path fill="#333" d="M115-194c53 0 69 39 70 98 0 66-23 100-70 100C84 3 66-7 56-30L54 0H23l1-261h32v101c10-23 28-34 59-34zm-8 174c40 0 45-34 45-75 0-40-5-75-45-74-42 0-51 32-51 76 0 43 10 73 51 73" id="an"/><path fill="#333" d="M100-194c63 0 86 42 84 106H49c0 40 14 67 53 68 26 1 43-12 49-29l28 8c-11 28-37 45-77 45C44 4 14-33 15-96c1-61 26-98 85-98zm52 81c6-60-76-77-97-28-3 7-6 17-6 28h103" id="ao"/><path fill="#333" d="M135-143c-3-34-86-38-87 0 15 53 115 12 119 90S17 21 10-45l28-5c4 36 97 45 98 0-10-56-113-15-118-90-4-57 82-63 122-42 12 7 21 19 24 35" id="ap"/><g id="k"><use transform="matrix(0.05,0,0,0.05,0,0)" xlink:href="#al"/><use transform="matrix(0.05,0,0,0.05,3.95,0)" xlink:href="#am"/><use transform="matrix(0.05,0,0,0.05,13.949999999999998,0)" xlink:href="#an"/><use transform="matrix(0.05,0,0,0.05,23.95,0)" xlink:href="#ao"/><use transform="matrix(0.05,0,0,0.05,33.95,0)" xlink:href="#al"/><use transform="matrix(0.05,0,0,0.05,37.900000000000006,0)" xlink:href="#ap"/></g><path d="M63-220v92h138v28H63V0H30v-248h175v28H63" id="aq"/><path d="M194 0L95-120 63-95V0H30v-248h33v124l119-124h40L117-140 236 0h-42" id="ar"/><g id="l"><use transform="matrix(0.05,0,0,0.05,0,0)" xlink:href="#aq"/><use transform="matrix(0.05,0,0,0.05,10.950000000000001,0)" xlink:href="#ar"/></g><path fill="#333" d="M24-231v-30h32v30H24zM24 0v-190h32V0H24" id="as"/><path fill="#333" d="M-5 72V49h209v23H-5" id="at"/><path fill="#333" d="M85-194c31 0 48 13 60 33l-1-100h32l1 261h-30c-2-10 0-23-3-31C134-8 116 4 85 4 32 4 16-35 15-94c0-66 23-100 70-100zm9 24c-40 0-46 34-46 75 0 40 6 74 45 74 42 0 51-32 51-76 0-42-9-74-50-73" id="au"/><g id="m"><use transform="matrix(0.05,0,0,0.05,0,0)" xlink:href="#as"/><use transform="matrix(0.05,0,0,0.05,3.95,0)" xlink:href="#at"/><use transform="matrix(0.05,0,0,0.05,13.949999999999998,0)" xlink:href="#as"/><use transform="matrix(0.05,0,0,0.05,17.9,0)" xlink:href="#au"/></g><path fill="#333" d="M117-194c89-4 53 116 60 194h-32v-121c0-31-8-49-39-48C34-167 62-67 57 0H25l-1-190h30c1 10-1 24 2 32 11-22 29-35 61-36" id="av"/><path fill="#333" d="M59-47c-2 24 18 29 38 22v24C64 9 27 4 27-40v-127H5v-23h24l9-43h21v43h35v23H59v120" id="aw"/><g id="n"><use transform="matrix(0.05,0,0,0.05,0,0)" xlink:href="#as"/><use transform="matrix(0.05,0,0,0.05,3.95,0)" xlink:href="#av"/><use transform="matrix(0.05,0,0,0.05,13.949999999999998,0)" xlink:href="#aw"/></g><path fill="#333" d="M84 4C-5 8 30-112 23-190h32v120c0 31 7 50 39 49 72-2 45-101 50-169h31l1 190h-30c-1-10 1-25-2-33-11 22-28 36-60 37" id="ax"/><g id="o"><use transform="matrix(0.05,0,0,0.05,0,0)" xlink:href="#ax"/><use transform="matrix(0.05,0,0,0.05,10,0)" xlink:href="#at"/><use transform="matrix(0.05,0,0,0.05,20,0)" xlink:href="#as"/><use transform="matrix(0.05,0,0,0.05,23.95,0)" xlink:href="#au"/></g><g id="p"><use transform="matrix(0.05,0,0,0.05,0,0)" xlink:href="#al"/><use transform="matrix(0.05,0,0,0.05,3.95,0)" xlink:href="#am"/><use transform="matrix(0.05,0,0,0.05,13.949999999999998,0)" xlink:href="#an"/><use transform="matrix(0.05,0,0,0.05,23.95,0)" xlink:href="#ao"/><use transform="matrix(0.05,0,0,0.05,33.95,0)" xlink:href="#al"/></g><path fill="#333" d="M108 0H70L1-190h34L89-25l56-165h34" id="ay"/><path fill="#333" d="M114-163C36-179 61-72 57 0H25l-1-190h30c1 12-1 29 2 39 6-27 23-49 58-41v29" id="az"/><path fill="#333" d="M96-169c-40 0-48 33-48 73s9 75 48 75c24 0 41-14 43-38l32 2c-6 37-31 61-74 61-59 0-76-41-82-99-10-93 101-131 147-64 4 7 5 14 7 22l-32 3c-4-21-16-35-41-35" id="aA"/><path fill="#333" d="M106-169C34-169 62-67 57 0H25v-261h32l-1 103c12-21 28-36 61-36 89 0 53 116 60 194h-32v-121c2-32-8-49-39-48" id="aB"/><path fill="#333" d="M87 75C49 33 22-17 22-94c0-76 28-126 65-167h31c-38 41-64 92-64 168S80 34 118 75H87" id="aC"/><path fill="#333" d="M101-251c82-7 93 87 43 132L82-64C71-53 59-42 53-27h129V0H18c2-99 128-94 128-182 0-28-16-43-45-43s-46 15-49 41l-32-3c6-41 34-60 81-64" id="aD"/><path fill="#333" d="M54-142c48-35 137-8 131 61C196 18 31 33 14-55l32-4c7 23 22 37 52 37 35-1 51-22 54-58 4-55-73-65-99-34H22l8-134h141v27H59" id="aE"/><path fill="#333" d="M33-261c38 41 65 92 65 168S71 34 33 75H2C39 34 66-17 66-93S39-220 2-261h31" id="aF"/><g id="q"><use transform="matrix(0.05,0,0,0.05,0,0)" xlink:href="#ay"/><use transform="matrix(0.05,0,0,0.05,9,0)" xlink:href="#am"/><use transform="matrix(0.05,0,0,0.05,19,0)" xlink:href="#az"/><use transform="matrix(0.05,0,0,0.05,24.95,0)" xlink:href="#aA"/><use transform="matrix(0.05,0,0,0.05,33.95,0)" xlink:href="#aB"/><use transform="matrix(0.05,0,0,0.05,43.95,0)" xlink:href="#am"/><use transform="matrix(0.05,0,0,0.05,53.95,0)" xlink:href="#az"/><use transform="matrix(0.05,0,0,0.05,59.900000000000006,0)" xlink:href="#aC"/><use transform="matrix(0.05,0,0,0.05,65.85000000000001,0)" xlink:href="#aD"/><use transform="matrix(0.05,0,0,0.05,75.85000000000001,0)" xlink:href="#aE"/><use transform="matrix(0.05,0,0,0.05,85.85000000000001,0)" xlink:href="#aE"/><use transform="matrix(0.05,0,0,0.05,95.85000000000001,0)" xlink:href="#aF"/></g><path fill="#333" d="M210-169c-67 3-38 105-44 169h-31v-121c0-29-5-50-35-48C34-165 62-65 56 0H25l-1-190h30c1 10-1 24 2 32 10-44 99-50 107 0 11-21 27-35 58-36 85-2 47 119 55 194h-31v-121c0-29-5-49-35-48" id="aG"/><g id="r"><use transform="matrix(0.05,0,0,0.05,0,0)" xlink:href="#aG"/><use transform="matrix(0.05,0,0,0.05,14.950000000000001,0)" xlink:href="#ao"/><use transform="matrix(0.05,0,0,0.05,24.950000000000003,0)" xlink:href="#aw"/><use transform="matrix(0.05,0,0,0.05,29.950000000000003,0)" xlink:href="#az"/><use transform="matrix(0.05,0,0,0.05,35.900000000000006,0)" xlink:href="#as"/><use transform="matrix(0.05,0,0,0.05,39.85000000000001,0)" xlink:href="#aA"/><use transform="matrix(0.05,0,0,0.05,48.85000000000001,0)" xlink:href="#ap"/></g><path d="M30-248c87 1 191-15 191 75 0 78-77 80-158 76V0H30v-248zm33 125c57 0 124 11 124-50 0-59-68-47-124-48v98" id="aH"/><path d="M68-38c1 34 0 65-14 84H32c9-13 17-26 17-46H33v-38h35" id="aI"/><g id="s"><use transform="matrix(0.05,0,0,0.05,0,0)" xlink:href="#aH"/><use transform="matrix(0.05,0,0,0.05,12,0)" xlink:href="#ar"/><use transform="matrix(0.05,0,0,0.05,24,0)" xlink:href="#aI"/></g><g id="t"><use transform="matrix(0.05,0,0,0.05,0,0)" xlink:href="#aq"/><use transform="matrix(0.05,0,0,0.05,10.950000000000001,0)" xlink:href="#ar"/></g><g id="u"><use transform="matrix(0.05,0,0,0.05,0,0)" xlink:href="#as"/><use transform="matrix(0.05,0,0,0.05,3.95,0)" xlink:href="#av"/><use transform="matrix(0.05,0,0,0.05,13.949999999999998,0)" xlink:href="#aw"/></g><g id="v"><use transform="matrix(0.05,0,0,0.05,0,0)" xlink:href="#aG"/><use transform="matrix(0.05,0,0,0.05,14.950000000000001,0)" xlink:href="#at"/><use transform="matrix(0.05,0,0,0.05,24.950000000000003,0)" xlink:href="#as"/><use transform="matrix(0.05,0,0,0.05,28.900000000000002,0)" xlink:href="#au"/></g><g id="w"><use transform="matrix(0.05,0,0,0.05,0,0)" xlink:href="#au"/><use transform="matrix(0.05,0,0,0.05,10,0)" xlink:href="#at"/><use transform="matrix(0.05,0,0,0.05,20,0)" xlink:href="#as"/><use transform="matrix(0.05,0,0,0.05,23.95,0)" xlink:href="#au"/></g><g id="x"><use transform="matrix(0.05,0,0,0.05,0,0)" xlink:href="#au"/><use transform="matrix(0.05,0,0,0.05,10,0)" xlink:href="#at"/><use transform="matrix(0.05,0,0,0.05,20,0)" xlink:href="#ay"/><use transform="matrix(0.05,0,0,0.05,29,0)" xlink:href="#am"/><use transform="matrix(0.05,0,0,0.05,39,0)" xlink:href="#al"/><use transform="matrix(0.05,0,0,0.05,42.95,0)" xlink:href="#ax"/><use transform="matrix(0.05,0,0,0.05,52.95,0)" xlink:href="#ao"/></g><path fill="#333" d="M101-234c-31-9-42 10-38 44h38v23H63V0H32v-167H5v-23h27c-7-52 17-82 69-68v24" id="aJ"/><path fill="#333" d="M100-194c62-1 85 37 85 99 1 63-27 99-86 99S16-35 15-95c0-66 28-99 85-99zM99-20c44 1 53-31 53-75 0-43-8-75-51-75s-53 32-53 75 10 74 51 75" id="aK"/><g id="y"><use transform="matrix(0.05,0,0,0.05,0,0)" xlink:href="#aJ"/><use transform="matrix(0.05,0,0,0.05,5,0)" xlink:href="#al"/><use transform="matrix(0.05,0,0,0.05,8.95,0)" xlink:href="#aK"/><use transform="matrix(0.05,0,0,0.05,18.95,0)" xlink:href="#am"/><use transform="matrix(0.05,0,0,0.05,28.950000000000003,0)" xlink:href="#aw"/></g><path fill="#333" d="M115-194c55 1 70 41 70 98S169 2 115 4C84 4 66-9 55-30l1 105H24l-1-265h31l2 30c10-21 28-34 59-34zm-8 174c40 0 45-34 45-75s-6-73-45-74c-42 0-51 32-51 76 0 43 10 73 51 73" id="aL"/><g id="z"><use transform="matrix(0.05,0,0,0.05,0,0)" xlink:href="#aL"/><use transform="matrix(0.05,0,0,0.05,10,0)" xlink:href="#az"/><use transform="matrix(0.05,0,0,0.05,15.949999999999998,0)" xlink:href="#ao"/><use transform="matrix(0.05,0,0,0.05,25.950000000000003,0)" xlink:href="#au"/><use transform="matrix(0.05,0,0,0.05,35.95,0)" xlink:href="#as"/><use transform="matrix(0.05,0,0,0.05,39.900000000000006,0)" xlink:href="#aA"/><use transform="matrix(0.05,0,0,0.05,48.900000000000006,0)" xlink:href="#aw"/><use transform="matrix(0.05,0,0,0.05,53.900000000000006,0)" xlink:href="#as"/><use transform="matrix(0.05,0,0,0.05,57.85,0)" xlink:href="#aK"/><use transform="matrix(0.05,0,0,0.05,67.85000000000001,0)" xlink:href="#av"/><use transform="matrix(0.05,0,0,0.05,77.85000000000001,0)" xlink:href="#ap"/></g><g id="A"><use transform="matrix(0.05,0,0,0.05,0,0)" xlink:href="#aA"/><use transform="matrix(0.05,0,0,0.05,9,0)" xlink:href="#al"/><use transform="matrix(0.05,0,0,0.05,12.949999999999998,0)" xlink:href="#am"/><use transform="matrix(0.05,0,0,0.05,22.95,0)" xlink:href="#ap"/><use transform="matrix(0.05,0,0,0.05,31.950000000000003,0)" xlink:href="#ap"/><use transform="matrix(0.05,0,0,0.05,40.95,0)" xlink:href="#at"/><use transform="matrix(0.05,0,0,0.05,50.95,0)" xlink:href="#aL"/><use transform="matrix(0.05,0,0,0.05,60.95,0)" xlink:href="#az"/><use transform="matrix(0.05,0,0,0.05,66.9,0)" xlink:href="#aK"/><use transform="matrix(0.05,0,0,0.05,76.9,0)" xlink:href="#an"/></g><g id="B"><use transform="matrix(0.05,0,0,0.05,0,0)" xlink:href="#aL"/><use transform="matrix(0.05,0,0,0.05,10,0)" xlink:href="#az"/><use transform="matrix(0.05,0,0,0.05,15.949999999999998,0)" xlink:href="#ao"/><use transform="matrix(0.05,0,0,0.05,25.950000000000003,0)" xlink:href="#au"/><use transform="matrix(0.05,0,0,0.05,35.95,0)" xlink:href="#al"/><use transform="matrix(0.05,0,0,0.05,39.900000000000006,0)" xlink:href="#am"/><use transform="matrix(0.05,0,0,0.05,49.900000000000006,0)" xlink:href="#an"/><use transform="matrix(0.05,0,0,0.05,59.900000000000006,0)" xlink:href="#ao"/><use transform="matrix(0.05,0,0,0.05,69.9,0)" xlink:href="#al"/></g><path fill="#333" d="M179-190L93 31C79 59 56 82 12 73V49c39 6 53-20 64-50L1-190h34L92-34l54-156h33" id="aM"/><g id="C"><use transform="matrix(0.05,0,0,0.05,0,0)" xlink:href="#au"/><use transform="matrix(0.05,0,0,0.05,10,0)" xlink:href="#as"/><use transform="matrix(0.05,0,0,0.05,13.949999999999998,0)" xlink:href="#ap"/><use transform="matrix(0.05,0,0,0.05,22.95,0)" xlink:href="#ap"/><use transform="matrix(0.05,0,0,0.05,31.950000000000003,0)" xlink:href="#as"/><use transform="matrix(0.05,0,0,0.05,35.9,0)" xlink:href="#aG"/><use transform="matrix(0.05,0,0,0.05,50.85,0)" xlink:href="#as"/><use transform="matrix(0.05,0,0,0.05,54.800000000000004,0)" xlink:href="#al"/><use transform="matrix(0.05,0,0,0.05,58.75,0)" xlink:href="#am"/><use transform="matrix(0.05,0,0,0.05,68.75,0)" xlink:href="#az"/><use transform="matrix(0.05,0,0,0.05,74.7,0)" xlink:href="#as"/><use transform="matrix(0.05,0,0,0.05,78.65,0)" xlink:href="#aw"/><use transform="matrix(0.05,0,0,0.05,83.65,0)" xlink:href="#aM"/></g><g id="D"><use transform="matrix(0.05,0,0,0.05,0,0)" xlink:href="#aH"/><use transform="matrix(0.05,0,0,0.05,12,0)" xlink:href="#ar"/></g><g id="E"><use transform="matrix(0.05,0,0,0.05,0,0)" xlink:href="#av"/><use transform="matrix(0.05,0,0,0.05,10,0)" xlink:href="#am"/><use transform="matrix(0.05,0,0,0.05,20,0)" xlink:href="#aG"/><use transform="matrix(0.05,0,0,0.05,34.95,0)" xlink:href="#ao"/></g><g id="F"><use transform="matrix(0.05,0,0,0.05,0,0)" xlink:href="#aJ"/><use transform="matrix(0.05,0,0,0.05,5,0)" xlink:href="#aK"/><use transform="matrix(0.05,0,0,0.05,15,0)" xlink:href="#az"/><use transform="matrix(0.05,0,0,0.05,20.95,0)" xlink:href="#aG"/><use transform="matrix(0.05,0,0,0.05,35.9,0)" xlink:href="#ax"/><use transform="matrix(0.05,0,0,0.05,45.9,0)" xlink:href="#al"/><use transform="matrix(0.05,0,0,0.05,49.85,0)" xlink:href="#am"/></g><path fill="#333" d="M177-190C167-65 218 103 67 71c-23-6-38-20-44-43l32-5c15 47 100 32 89-28v-30C133-14 115 1 83 1 29 1 15-40 15-95c0-56 16-97 71-98 29-1 48 16 59 35 1-10 0-23 2-32h30zM94-22c36 0 50-32 50-73 0-42-14-75-50-75-39 0-46 34-46 75s6 73 46 73" id="aN"/><g id="G"><use transform="matrix(0.05,0,0,0.05,0,0)" xlink:href="#as"/><use transform="matrix(0.05,0,0,0.05,3.95,0)" xlink:href="#aG"/><use transform="matrix(0.05,0,0,0.05,18.900000000000002,0)" xlink:href="#am"/><use transform="matrix(0.05,0,0,0.05,28.900000000000002,0)" xlink:href="#aN"/><use transform="matrix(0.05,0,0,0.05,38.900000000000006,0)" xlink:href="#ao"/><use transform="matrix(0.05,0,0,0.05,48.900000000000006,0)" xlink:href="#ap"/></g><g id="H"><use transform="matrix(0.05,0,0,0.05,0,0)" xlink:href="#aJ"/><use transform="matrix(0.05,0,0,0.05,5,0)" xlink:href="#as"/><use transform="matrix(0.05,0,0,0.05,8.95,0)" xlink:href="#al"/><use transform="matrix(0.05,0,0,0.05,12.899999999999999,0)" xlink:href="#ao"/><use transform="matrix(0.05,0,0,0.05,22.9,0)" xlink:href="#aL"/><use transform="matrix(0.05,0,0,0.05,32.9,0)" xlink:href="#am"/><use transform="matrix(0.05,0,0,0.05,42.9,0)" xlink:href="#aw"/><use transform="matrix(0.05,0,0,0.05,47.9,0)" xlink:href="#aB"/></g><g id="I"><use transform="matrix(0.05,0,0,0.05,0,0)" xlink:href="#aG"/><use transform="matrix(0.05,0,0,0.05,14.950000000000001,0)" xlink:href="#aK"/><use transform="matrix(0.05,0,0,0.05,24.950000000000003,0)" xlink:href="#au"/><use transform="matrix(0.05,0,0,0.05,34.95,0)" xlink:href="#ao"/><use transform="matrix(0.05,0,0,0.05,44.95,0)" xlink:href="#al"/><use transform="matrix(0.05,0,0,0.05,48.900000000000006,0)" xlink:href="#ap"/></g><g id="J"><use transform="matrix(0.05,0,0,0.05,0,0)" xlink:href="#aG"/><use transform="matrix(0.05,0,0,0.05,14.950000000000001,0)" xlink:href="#aK"/><use transform="matrix(0.05,0,0,0.05,24.950000000000003,0)" xlink:href="#au"/><use transform="matrix(0.05,0,0,0.05,34.95,0)" xlink:href="#ao"/><use transform="matrix(0.05,0,0,0.05,44.95,0)" xlink:href="#al"/><use transform="matrix(0.05,0,0,0.05,48.900000000000006,0)" xlink:href="#at"/><use transform="matrix(0.05,0,0,0.05,58.900000000000006,0)" xlink:href="#av"/><use transform="matrix(0.05,0,0,0.05,68.9,0)" xlink:href="#am"/><use transform="matrix(0.05,0,0,0.05,78.9,0)" xlink:href="#aG"/><use transform="matrix(0.05,0,0,0.05,93.85000000000001,0)" xlink:href="#ao"/></g><path fill="#333" d="M143 0L79-87 56-68V0H24v-261h32v163l83-92h37l-77 82L181 0h-38" id="aO"/><g id="K"><use transform="matrix(0.05,0,0,0.05,0,0)" xlink:href="#aG"/><use transform="matrix(0.05,0,0,0.05,14.950000000000001,0)" xlink:href="#aK"/><use transform="matrix(0.05,0,0,0.05,24.950000000000003,0)" xlink:href="#au"/><use transform="matrix(0.05,0,0,0.05,34.95,0)" xlink:href="#ao"/><use transform="matrix(0.05,0,0,0.05,44.95,0)" xlink:href="#al"/><use transform="matrix(0.05,0,0,0.05,48.900000000000006,0)" xlink:href="#at"/><use transform="matrix(0.05,0,0,0.05,58.900000000000006,0)" xlink:href="#al"/><use transform="matrix(0.05,0,0,0.05,62.85,0)" xlink:href="#as"/><use transform="matrix(0.05,0,0,0.05,66.80000000000001,0)" xlink:href="#av"/><use transform="matrix(0.05,0,0,0.05,76.80000000000001,0)" xlink:href="#aO"/></g><path fill="#333" d="M240 0l2-218c-23 76-54 145-80 218h-23L58-218 59 0H30v-248h44l77 211c21-75 51-140 76-211h43V0h-30" id="aP"/><path fill="#333" d="M205 0l-28-72H64L36 0H1l101-248h38L239 0h-34zm-38-99l-47-123c-12 45-31 82-46 123h93" id="aQ"/><path fill="#333" d="M195 0l-74-108L45 0H8l94-129-87-119h37l69 98 67-98h37l-84 118L233 0h-38" id="aR"/><g id="L"><use transform="matrix(0.05,0,0,0.05,0,0)" xlink:href="#ay"/><use transform="matrix(0.05,0,0,0.05,9,0)" xlink:href="#am"/><use transform="matrix(0.05,0,0,0.05,19,0)" xlink:href="#az"/><use transform="matrix(0.05,0,0,0.05,24.95,0)" xlink:href="#aA"/><use transform="matrix(0.05,0,0,0.05,33.95,0)" xlink:href="#aB"/><use transform="matrix(0.05,0,0,0.05,43.95,0)" xlink:href="#am"/><use transform="matrix(0.05,0,0,0.05,53.95,0)" xlink:href="#az"/><use transform="matrix(0.05,0,0,0.05,59.900000000000006,0)" xlink:href="#aC"/><use transform="matrix(0.05,0,0,0.05,65.85000000000001,0)" xlink:href="#aP"/><use transform="matrix(0.05,0,0,0.05,80.80000000000001,0)" xlink:href="#aQ"/><use transform="matrix(0.05,0,0,0.05,92.80000000000001,0)" xlink:href="#aR"/></g><g id="M"><use transform="matrix(0.05,0,0,0.05,0,0)" xlink:href="#aA"/><use transform="matrix(0.05,0,0,0.05,9,0)" xlink:href="#al"/><use transform="matrix(0.05,0,0,0.05,12.949999999999998,0)" xlink:href="#am"/><use transform="matrix(0.05,0,0,0.05,22.95,0)" xlink:href="#ap"/><use transform="matrix(0.05,0,0,0.05,31.950000000000003,0)" xlink:href="#ap"/><use transform="matrix(0.05,0,0,0.05,40.95,0)" xlink:href="#at"/><use transform="matrix(0.05,0,0,0.05,50.95,0)" xlink:href="#aG"/><use transform="matrix(0.05,0,0,0.05,65.9,0)" xlink:href="#am"/><use transform="matrix(0.05,0,0,0.05,75.9,0)" xlink:href="#aL"/></g></defs></g></svg>