<svg xmlns="http://www.w3.org/2000/svg" xmlns:xlink="http://www.w3.org/1999/xlink" xmlns:lucid="lucid" width="2821" height="1321"><g transform="translate(1380.5 820.5)" lucid:page-tab-id="0_0"><path d="M-1500-1000h3000V500h-3000z" fill="#fff"/><path d="M-1360-480v-314a6 6 0 0 1 6-6h35.67v320z" stroke="#3a414a" fill="#6db1ff"/><path d="M-1360-480h41.67v320H-1360z" stroke="#3a414a" fill="#00c2a8"/><path d="M-1360-160h41.67v320H-1360z" stroke="#3a414a" fill="#ffe342"/><path d="M-1318.33 480H-1354a6 6 0 0 1-6-6V160h41.67z" stroke="#3a414a" fill="#54c45e"/><path d="M-1318.33-800H1414a6 6 0 0 1 6 6v314h-2738.33zM-1318.33-480H1420v320h-2738.33zM-1318.33-160H1420v320h-2738.33zM1420 160v314a6 6 0 0 1-6 6h-2732.33V160z" stroke="#3a414a" fill="none"/><use xlink:href="#a" transform="matrix(-1.8369701987210297e-16,-1,1,-1.8369701987210297e-16,-1360,-480.0000000000002) translate(78.24074074074076 25.444444444444443)"/><use xlink:href="#b" transform="matrix(-1.8369701987210297e-16,-1,1,-1.8369701987210297e-16,-1360,-480.0000000000002) translate(146.08024691358025 25.444444444444443)"/><use xlink:href="#c" transform="matrix(-1.8369701987210297e-16,-1,1,-1.8369701987210297e-16,-1360,-160.00000000000023) translate(87.59259259259261 25.444444444444443)"/><use xlink:href="#d" transform="matrix(-1.8369701987210297e-16,-1,1,-1.8369701987210297e-16,-1360,-160.00000000000023) translate(137.40740740740742 25.444444444444443)"/><use xlink:href="#e" transform="matrix(-1.8369701987210297e-16,-1,1,-1.8369701987210297e-16,-1360.0000000000002,159.99999999999977) translate(110.12345679012347 25.444444444444443)"/><use xlink:href="#f" transform="matrix(-1.8369701987210297e-16,-1,1,-1.8369701987210297e-16,-1360.0000000000002,159.99999999999977) translate(163.14814814814815 25.444444444444443)"/><use xlink:href="#g" transform="matrix(-1.8369701987210297e-16,-1,1,-1.8369701987210297e-16,-1360.0000000000002,480) translate(39.78395061728398 25.444444444444443)"/><use xlink:href="#h" transform="matrix(-1.8369701987210297e-16,-1,1,-1.8369701987210297e-16,-1360.0000000000002,480) translate(103.91975308641977 25.444444444444443)"/><use xlink:href="#i" transform="matrix(-1.8369701987210297e-16,-1,1,-1.8369701987210297e-16,-1360.0000000000002,480) translate(193.91975308641975 25.444444444444443)"/><path d="M-382.25-693.25a8 8 0 0 1 8-8h144a8 8 0 0 1 8 8v112c-26.72-20.04-43.36-20.04-53.44-20.04-16 0-37.27 20.05-53.27 20.05-9.92 0-26.72 0-53.28-20.04z" stroke="#3a414a" fill="#cfe4ff"/><use xlink:href="#j" transform="matrix(1,0,0,1,-376.6918654706089,-695.6924878392673) translate(17.895061728395067 49.29827777777778)"/><use xlink:href="#k" transform="matrix(1,0,0,1,-376.6918654706089,-695.6924878392673) translate(79.43827160493828 49.29827777777778)"/><path d="M-596.83-693.25a8 8 0 0 1 8-8h144a8 8 0 0 1 8 8v104a8 8 0 0 1-8 8h-144a8 8 0 0 1-8-8z" stroke="#3a414a" fill="#cfe4ff"/><use xlink:href="#l" transform="matrix(1,0,0,1,-591.2694531948697,-695.6924878392673) translate(17.185185185185187 45.32952777777778)"/><use xlink:href="#m" transform="matrix(1,0,0,1,-591.2694531948697,-695.6924878392673) translate(70.14814814814815 45.32952777777778)"/><use xlink:href="#n" transform="matrix(1,0,0,1,-591.2694531948697,-695.6924878392673) translate(48.04938271604938 71.99619444444446)"/><path d="M1203.56 263.4a8 8 0 0 1 8-8l144-.02a8 8 0 0 1 8 8v104a8 8 0 0 1-8 8h-144a8 8 0 0 1-8-8z" stroke="#3a414a" fill="#e3fae3"/><use xlink:href="#o" transform="matrix(1,0,0,1,1209.1155233569477,260.9463424131289) translate(38.69753086419753 45.32952777777778)"/><use xlink:href="#p" transform="matrix(1,0,0,1,1209.1155233569477,260.9463424131289) translate(24.160493827160497 71.99619444444446)"/><use xlink:href="#q" transform="matrix(1,0,0,1,1209.1155233569477,260.9463424131289) translate(89.03703703703704 71.99619444444446)"/><path d="M560-54.6a8 8 0 0 1 8-8h144a8 8 0 0 1 8 8v104a8 8 0 0 1-8 8H568a8 8 0 0 1-8-8z" stroke="#3a414a" fill="#fcfcca"/><path d="M576-62.6v120m128-120v120" stroke="#3a414a" fill="none"/><use xlink:href="#r" transform="matrix(1,0,0,1,585.561,-57.052487839267236) translate(18.11111111111111 47.465111111111106)"/><use xlink:href="#s" transform="matrix(1,0,0,1,585.561,-57.052487839267236) translate(18.759259259259263 74.13177777777778)"/><use xlink:href="#t" transform="matrix(1,0,0,1,585.561,-57.052487839267236) translate(43.45061728395062 74.13177777777778)"/><path d="M-516.33-328.63l.07.88.2.84.33.78.45.74.56.65.66.56.73.46.8.32.84.2.9.07h131.16v1h-131.2l-1-.1-1-.23-.94-.4-.87-.52-.78-.67-.66-.77-.52-.86-.4-.94-.23-1-.08-1v-251.65h1z" stroke="#3a414a" stroke-width=".05" fill="#3a414a"/><path d="M-516.33-580.24h-1v-.5h1z" fill="#3a414a"/><path d="M-516.3-580.22h-1.06v-.56h1.06zm-1-.5v.45h.94v-.46z" stroke="#3a414a" stroke-width=".05" fill="#3a414a"/><path d="M-364.87-322.6l-14.27 4.62v-9.27z" fill="#3a414a"/><path d="M-363.25-322.6l-16.4 5.3v-10.64zm-15.4 3.93l12.16-3.94-12.14-3.96z" stroke="#3a414a" stroke-width=".05" fill="#3a414a"/><path d="M-242.25-274.6c0 6.6-26.87 12-60 12-33.14 0-60-5.4-60-12v-96c0-6.64 26.86-12 60-12 33.13 0 60 5.36 60 12z" stroke="#6f7681" stroke-width="2" fill="#b8f5ed"/><path d="M-242.25-370.6c0 6.6-26.87 12-60 12-33.14 0-60-5.4-60-12" stroke="#6f7681" stroke-width="2" fill="none"/><use xlink:href="#u" transform="matrix(1,0,0,1,-357.25286547060887,-353.6134878392673) translate(2.037037037037038 47.34027777777778)"/><use xlink:href="#v" transform="matrix(1,0,0,1,-357.25286547060887,-353.6134878392673) translate(55 47.34027777777778)"/><path d="M-301.75-400h-1v-49.22h1zm0-70.55h-1v-104h1z" stroke="#000" stroke-width=".05"/><path d="M-302.25-385.23l-4.64-14.27h9.28z"/><path d="M-302.25-383.6l-5.33-16.4h10.65zm-3.95-15.4l3.95 12.15 3.94-12.15z" stroke="#000" stroke-width=".05"/><path d="M-297.62-575.05h-9.27l4.65-14.26z"/><path d="M-296.93-574.55h-10.65l5.33-16.38zm-9.27-1h7.9l-3.95-12.14z" stroke="#000" stroke-width=".05"/><use xlink:href="#w" transform="matrix(1,0,0,1,-384.1787913965348,-470.5490335060229) translate(0 14.222222222222223)"/><use xlink:href="#x" transform="matrix(1,0,0,1,-384.1787913965348,-470.5490335060229) translate(14.814814814814817 14.222222222222223)"/><use xlink:href="#y" transform="matrix(1,0,0,1,-384.1787913965348,-470.5490335060229) translate(54.27160493827161 14.222222222222223)"/><use xlink:href="#z" transform="matrix(1,0,0,1,-384.1787913965348,-470.5490335060229) translate(97.7283950617284 14.222222222222223)"/><use xlink:href="#A" transform="matrix(1,0,0,1,-384.1787913965348,-470.5490335060229) translate(127.35802469135804 14.222222222222223)"/><path d="M-81.75-328.6l-.08 1-.24 1-.4.94-.52.87-.66.78-.77.67-.87.53-.94.4-1 .23-1 .1h-152.5v-1h152.47l.88-.08.85-.2.8-.33.73-.47.66-.56.55-.65.45-.74.33-.8.2-.83.07-.88v-120.72h1zm0-142.08h-1v-103.87h1z" stroke="#000" stroke-width=".05"/><path d="M-240.74-322.1h-.5v-1h.5z"/><path d="M-240.72-322.1h-.56v-1.04h.56zm-.5-1v.96h.46v-.95z" stroke="#000" stroke-width=".05"/><path d="M-77.62-575.05h-9.27l4.65-14.26z"/><path d="M-76.93-574.55h-10.65l5.33-16.38zm-9.27-1h7.9l-3.95-12.14z" stroke="#000" stroke-width=".05"/><use xlink:href="#w" transform="matrix(1,0,0,1,-132.08002596443603,-470.6853809231141) translate(0 14.222222222222223)"/><use xlink:href="#x" transform="matrix(1,0,0,1,-132.08002596443603,-470.6853809231141) translate(14.814814814814817 14.222222222222223)"/><use xlink:href="#B" transform="matrix(1,0,0,1,-132.08002596443603,-470.6853809231141) translate(54.27160493827161 14.222222222222223)"/><path d="M-162.25-693.25a8 8 0 0 1 8-8h144a8 8 0 0 1 8 8v112C-28.97-601.3-45.6-601.3-55.7-601.3c-16 0-37.27 20.05-53.27 20.05-9.92 0-26.72 0-53.28-20.04z" stroke="#3a414a" fill="#cfe4ff"/><use xlink:href="#C" transform="matrix(1,0,0,1,-156.69186547060886,-695.6924878392673) translate(35.02469135802468 29.829527777777777)"/><use xlink:href="#k" transform="matrix(1,0,0,1,-156.69186547060886,-695.6924878392673) translate(48.66666666666667 67.16286111111111)"/><path d="M-221.25-641.15h42.1" stroke="#000" fill="none"/><path d="M-221.24-640.65h-.5v-1h.5z" stroke="#000" stroke-width=".05"/><path d="M-164.37-641.15l-14.27 4.64v-9.28z" stroke="#000"/><path d="M162.73-274.6c0 6.6-26.86 12-60 12s-60-5.4-60-12v-96c0-6.64 26.87-12 60-12 33.14 0 60 5.36 60 12z" stroke="#6f7681" stroke-width="2" fill="#b8f5ed"/><path d="M162.73-370.6c0 6.6-26.86 12-60 12s-60-5.4-60-12" stroke="#6f7681" stroke-width="2" fill="none"/><use xlink:href="#D" transform="matrix(1,0,0,1,47.73165571129704,-353.61348783926735) translate(24.814814814814817 33.90277777777778)"/><use xlink:href="#v" transform="matrix(1,0,0,1,47.73165571129704,-353.61348783926735) translate(28.51851851851852 60.56944444444445)"/><path d="M335.9-274.6c0 6.6-26.88 12-60 12-33.15 0-60-5.4-60-12v-96c0-6.64 26.85-12 60-12 33.12 0 60 5.36 60 12z" stroke="#6f7681" stroke-width="2" fill="#b8f5ed"/><path d="M335.9-370.6c0 6.6-26.88 12-60 12-33.15 0-60-5.4-60-12" stroke="#6f7681" stroke-width="2" fill="none"/><use xlink:href="#E" transform="matrix(1,0,0,1,220.88552415016272,-353.61348783926735) translate(-4.012345679012348 34.111111111111114)"/><use xlink:href="#v" transform="matrix(1,0,0,1,220.88552415016272,-353.61348783926735) translate(28.51851851851852 60.77777777777778)"/><path d="M100.58-439.5v39.58M100.58-439.5v-.5" stroke="#000" fill="none"/><path d="M100.58-385.16l-4.64-14.26h9.27z" stroke="#000"/><path d="M635.02-742.17l1 .23.93.4.87.53.78.65.66.77.53.88.38.94.24 1 .08 1V-79.5h-1v-656.23l-.07-.88-.2-.85-.33-.8-.45-.74-.56-.64-.67-.56-.73-.45-.8-.33-.84-.2-.88-.07h-710.2l-.9.07-.83.2-.8.33-.73.45-.66.56-.56.65-.45.75-.33.8-.2.84-.07.87v33.48h-1v-33.52l.08-1 .23-1 .4-.94.53-.88.65-.77.78-.66.86-.55.94-.4 1-.22 1-.08H634z" stroke="#000" stroke-width=".05"/><path d="M-81.75-701.75h-1v-.52h1z"/><path d="M-81.73-701.73h-1.05v-.56h1.05zm-1-.5v.45h.95v-.46z" stroke="#000" stroke-width=".05"/><path d="M640-64.73L635.37-79h9.26z"/><path d="M640-63.1l-5.32-16.4h10.64zm-3.95-15.4L640-66.35l3.95-12.15z" stroke="#000" stroke-width=".05"/><path d="M924.6-274.6c0 6.6-26.87 12-60 12-33.14 0-60-5.4-60-12v-96c0-6.64 26.86-12 60-12 33.13 0 60 5.36 60 12z" stroke="#6f7681" stroke-width="2" fill="#b8f5ed"/><path d="M924.6-370.6c0 6.6-26.87 12-60 12-33.14 0-60-5.4-60-12" stroke="#6f7681" stroke-width="2" fill="none"/><use xlink:href="#F" transform="matrix(1,0,0,1,809.5947171972748,-353.6134878392673) translate(24.16666666666667 33.90277777777778)"/><use xlink:href="#v" transform="matrix(1,0,0,1,809.5947171972748,-353.6134878392673) translate(28.51851851851852 60.56944444444445)"/><path d="M721-2.6h24.78a6 6 0 0 0 6-6v-626.65a6 6 0 0 1 6-6h8.9" stroke="#000" fill="none"/><path d="M721-2.1h-.5v-1h.5z" stroke="#000" stroke-width=".05"/><path d="M781.44-641.25l-14.27 4.63v-9.27z" stroke="#000"/><path d="M783.55-693.25a8 8 0 0 1 8-8h144a8 8 0 0 1 8 8v112c-26.7-20.04-43.35-20.04-53.43-20.04-16 0-37.28 20.05-53.28 20.05-9.93 0-26.73 0-53.3-20.04z" stroke="#3a414a" fill="#cfe4ff"/><use xlink:href="#G" transform="matrix(1,0,0,1,789.1155233569478,-695.6924878392672) translate(18.450617283950617 49.29827777777778)"/><use xlink:href="#k" transform="matrix(1,0,0,1,789.1155233569478,-695.6924878392672) translate(78.88271604938272 49.29827777777778)"/><path d="M863.55-574.55v87.27a.03.03 0 0 0 .03.02.03.03 0 0 1 .03.03v103.15" stroke="#000" fill="none"/><path d="M863.55-589.3l4.64 14.25h-9.28z" stroke="#000"/><path d="M864.1-383.6l-1 .04v-.53h1z" stroke="#000" stroke-width=".05"/><path d="M1084.6-274.6c0 6.6-26.87 12-60 12-33.14 0-60-5.4-60-12v-96c0-6.64 26.86-12 60-12 33.13 0 60 5.36 60 12z" stroke="#6f7681" stroke-width="2" fill="#b8f5ed"/><path d="M1084.6-370.6c0 6.6-26.87 12-60 12-33.14 0-60-5.4-60-12" stroke="#6f7681" stroke-width="2" fill="none"/><use xlink:href="#H" transform="matrix(1,0,0,1,969.594717197275,-353.61348783926735) translate(27.87037037037037 33.90277777777778)"/><use xlink:href="#v" transform="matrix(1,0,0,1,969.594717197275,-353.61348783926735) translate(28.51851851851852 60.56944444444445)"/><path d="M944.55-641.15h74.05a6 6 0 0 1 6 6V-400" stroke="#000" fill="none"/><path d="M944.57-640.65h-.52v-1h.52z" stroke="#000" stroke-width=".05"/><path d="M1024.6-385.23l-4.64-14.27h9.27z" stroke="#000"/><path d="M14.63-641.15h17.62a6 6 0 0 1 6 6V-446a6 6 0 0 0 6 6H269.9a6 6 0 0 1 6 6v34" stroke="#000" fill="none"/><path d="M-.14-641.15l14.27-4.63v9.27zM275.9-385.23l-4.65-14.27h9.27z" stroke="#000"/><path d="M663.55 263.4a8 8 0 0 1 8-8l144-.02a8 8 0 0 1 8 8v104a8 8 0 0 1-8 8h-144a8 8 0 0 1-8-8z" stroke="#3a414a" fill="#e3fae3"/><use xlink:href="#I" transform="matrix(1,0,0,1,675.5545233569478,267.3853424131289) translate(33.49382716049383 53.77777777777778)"/><path d="M604.55 315.4h42.12" stroke="#000" fill="none"/><path d="M604.57 315.9h-.52v-1h.52z" stroke="#000" stroke-width=".05"/><path d="M661.44 315.4L647.17 320v-9.27z" stroke="#000"/><path d="M443.56 261.4a6 6 0 0 1 6-6l148-.02a6 6 0 0 1 6 6v108a6 6 0 0 1-6 6h-148a6 6 0 0 1-6-6zm16-6v119.98m-16-104h160" stroke="#000" fill="#e3fae3"/><use xlink:href="#J" transform="matrix(1,0,0,1,464.5545233569478,276.3853424131289) translate(33.04938271604938 38.34027777777778)"/><use xlink:href="#K" transform="matrix(1,0,0,1,464.5545233569478,276.3853424131289) translate(76.25925925925927 38.34027777777778)"/><use xlink:href="#L" transform="matrix(1,0,0,1,464.5545233569478,276.3853424131289) translate(24.561728395061728 65.00694444444446)"/><path d="M931.15 263.4a8 8 0 0 1 8-8l144-.02a8 8 0 0 1 8 8v104a8 8 0 0 1-8 8h-144a8 8 0 0 1-8-8z" stroke="#3a414a" fill="#e3fae3"/><use xlink:href="#M" transform="matrix(1,0,0,1,943.1525323781209,267.3853424131289) translate(34.72839506172839 26.77777777777778)"/><use xlink:href="#N" transform="matrix(1,0,0,1,943.1525323781209,267.3853424131289) translate(24.944444444444443 53.44444444444445)"/><use xlink:href="#O" transform="matrix(1,0,0,1,943.1525323781209,267.3853424131289) translate(25.438271604938272 80.11111111111111)"/><path d="M824.55 315.4h89.72" stroke="#000" fill="none"/><path d="M824.57 315.9h-.52v-1h.52z" stroke="#000" stroke-width=".05"/><path d="M929.03 315.4L914.77 320v-9.27z" stroke="#000"/><path d="M1092.15 315.4h94.52" stroke="#000" fill="none"/><path d="M1092.16 315.9h-.5v-1h.5z" stroke="#000" stroke-width=".05"/><path d="M1201.44 315.4l-14.27 4.62v-9.27z" stroke="#000"/><path d="M1343.56-274.6c0 6.6-26.87 12-60 12-33.14 0-60-5.4-60-12v-96c0-6.64 26.86-12 60-12 33.13 0 60 5.36 60 12z" stroke="#6f7681" stroke-width="2" fill="#b8f5ed"/><path d="M1343.56-370.6c0 6.6-26.87 12-60 12-33.14 0-60-5.4-60-12" stroke="#6f7681" stroke-width="2" fill="none"/><use xlink:href="#P" transform="matrix(1,0,0,1,1228.5545233569478,-353.61348783926735) translate(0.1543209876543159 33.90277777777778)"/><use xlink:href="#v" transform="matrix(1,0,0,1,1228.5545233569478,-353.61348783926735) translate(28.51851851851852 60.56944444444445)"/><path d="M1283.56 254.38v-499.6" stroke="#000" fill="none"/><path d="M1284.06 254.88h-1v-.5h1z" stroke="#000" stroke-width=".05"/><path d="M1283.56-260l4.63 14.27h-9.28z" stroke="#000"/><path d="M1063.56-56.6a6 6 0 0 1 6-6h148a6 6 0 0 1 6 6v108a6 6 0 0 1-6 6h-148a6 6 0 0 1-6-6z" stroke="#000" fill="#fcfcca"/><path d="M1079.56-62.6v120m128-120v120" stroke="#000" fill="none"/><use xlink:href="#Q" transform="matrix(1,0,0,1,1088.554523356948,-57.613487839267236) translate(6.265432098765437 46.111111111111114)"/><use xlink:href="#R" transform="matrix(1,0,0,1,1088.554523356948,-57.613487839267236) translate(85.21604938271605 46.111111111111114)"/><use xlink:href="#S" transform="matrix(1,0,0,1,1088.554523356948,-57.613487839267236) translate(18.672839506172835 72.77777777777777)"/><path d="M1222.06-322.6h-4.84m-4.83 0h-9.68m-4.83 0h-9.68m-4.83 0h-9.68m-4.83 0h-9.68m-4.83 0h-4.85l-.93.06-.92.22-.87.36-.8.5-.72.6-.6.72-.5.8-.35.87-.22.92-.08.94v4.93m0 4.94v9.88m0 4.94v9.87m0 4.94v9.9m0 4.93v9.87m0 4.94v9.9m0 4.93v9.88m0 4.94v9.87m0 4.94v9.88m0 4.94v9.88m0 4.94v9.88m0 4.94v9.88m0 4.94v9.88m0 4.94v9.88m0 4.94v9.88m0 4.94v9.88m0 4.94v4.94" stroke="#000" fill="none"/><path d="M1222.56-322.1h-.52v-1h.52z" stroke="#000" stroke-width=".05"/><path d="M1143.56-64.73L1138.9-79h9.27z" stroke="#000"/><path d="M68.5 263.4a6 6 0 0 1 6-6h148a6 6 0 0 1 6 6v108a6 6 0 0 1-6 6h-148a6 6 0 0 1-6-6z" stroke="#000" fill="#e3fae3"/><use xlink:href="#T" transform="matrix(1,0,0,1,80.50547524613398,269.38651216073276) translate(21.796296296296298 38.77777777777778)"/><use xlink:href="#U" transform="matrix(1,0,0,1,80.50547524613398,269.38651216073276) translate(32.29012345679012 65.44444444444446)"/><path d="M1143.56 58.4V204a6 6 0 0 1-6 6H326a6 6 0 0 0-6 6v95.4a6 6 0 0 1-6 6h-68.6" stroke="#000" fill="none"/><path d="M1144.06 58.4h-1v-.5h1z" stroke="#000" stroke-width=".05"/><path d="M230.62 317.4l14.27-4.65v9.27z" stroke="#000"/><path d="M506.43-274.6c0 6.6-26.87 12-60 12-33.14 0-60-5.4-60-12v-96c0-6.64 26.86-12 60-12 33.13 0 60 5.36 60 12z" stroke="#6f7681" stroke-width="2" fill="#b8f5ed"/><path d="M506.43-370.6c0 6.6-26.87 12-60 12-33.14 0-60-5.4-60-12" stroke="#6f7681" stroke-width="2" fill="none"/><use xlink:href="#V" transform="matrix(1,0,0,1,391.42590474976123,-353.6134878392673) translate(19.29012345679012 33.90277777777778)"/><use xlink:href="#v" transform="matrix(1,0,0,1,391.42590474976123,-353.6134878392673) translate(28.51851851851852 60.56944444444445)"/><path d="M148.5 256.4V3.63a6 6 0 0 1 6-6h285.93a6 6 0 0 0 6-6v-236.87" stroke="#000" fill="none"/><path d="M149 256.9h-1v-.53h1z" stroke="#000" stroke-width=".05"/><path d="M446.43-260l4.63 14.27h-9.27z" stroke="#000"/><path d="M507.93-322.6h19.53a6 6 0 0 1 6 6v308a6 6 0 0 0 6 6h3.66" stroke="#000" fill="none"/><path d="M507.94-322.1h-.5v-1h.5z" stroke="#000" stroke-width=".05"/><path d="M557.88-2.6L543.62 2v-9.27z" stroke="#000"/><path d="M-1260-693.25a8 8 0 0 1 8-8h144a8 8 0 0 1 8 8v104a8 8 0 0 1-8 8h-144a8 8 0 0 1-8-8z" stroke="#3a414a" fill="#cfe4ff"/><g><use xlink:href="#W" transform="matrix(1,0,0,1,-1254.439,-695.6924878392673) translate(49.808641975308646 31.704527777777777)"/><use xlink:href="#X" transform="matrix(1,0,0,1,-1254.439,-695.6924878392673) translate(24.592592592592585 58.37119444444445)"/><use xlink:href="#Y" transform="matrix(1,0,0,1,-1254.439,-695.6924878392673) translate(44.31481481481481 85.03786111111111)"/></g><path d="M-1179.5 453.98l.07.88.2.84.33.8.45.73.56.66.67.55.73.45.8.33.84.2.88.07h1691.5l.9-.07.83-.2.8-.33.74-.45.64-.56.56-.67.45-.73.33-.8.2-.84.07-.88v-61.7h1V454l-.07 1-.24 1-.4.93-.53.87-.65.78-.77.66-.87.53-.94.38-1 .24-1 .08H-1174l-1-.08-1-.24-.93-.4-.87-.52-.78-.66-.66-.78-.53-.87-.38-.94-.24-.98-.08-1V-580.25h1z" stroke="#000" stroke-width=".05"/><path d="M-1179.5-580.24h-1v-.5h1z"/><path d="M-1179.47-580.22h-1.06v-.56h1.06zm-1-.5v.45h.94v-.46z" stroke="#000" stroke-width=".05"/><path d="M528.2 391.77h-9.28l4.63-14.27z"/><path d="M528.88 392.27h-10.65l5.32-16.38zm-9.27-1h7.9l-3.95-12.15z" stroke="#000" stroke-width=".05"/><path d="M-1040-692a8 8 0 0 1 8-8h144a8 8 0 0 1 8 8v104a8 8 0 0 1-8 8h-144a8 8 0 0 1-8-8z" stroke="#3a414a" fill="#cfe4ff"/><g><use xlink:href="#Z" transform="matrix(1,0,0,1,-1034.439,-694.439) translate(47.98765432098766 31.704527777777777)"/><use xlink:href="#aa" transform="matrix(1,0,0,1,-1034.439,-694.439) translate(38.172839506172835 58.37119444444445)"/><use xlink:href="#ab" transform="matrix(1,0,0,1,-1034.439,-694.439) translate(45.487654320987644 85.03786111111111)"/></g><path d="M-820-692a8 8 0 0 1 8-8h144a8 8 0 0 1 8 8v104a8 8 0 0 1-8 8h-144a8 8 0 0 1-8-8z" stroke="#3a414a" fill="#cfe4ff"/><g><use xlink:href="#ac" transform="matrix(1,0,0,1,-814.439,-694.439) translate(16.999999999999996 45.32952777777778)"/><use xlink:href="#ad" transform="matrix(1,0,0,1,-814.439,-694.439) translate(72.80246913580247 45.32952777777778)"/><use xlink:href="#ae" transform="matrix(1,0,0,1,-814.439,-694.439) translate(91.32098765432099 45.32952777777778)"/><use xlink:href="#Y" transform="matrix(1,0,0,1,-814.439,-694.439) translate(44.31481481481481 71.99619444444446)"/></g><path d="M-1040-56.6a6 6 0 0 1 6-6h148a6 6 0 0 1 6 6v108a6 6 0 0 1-6 6h-148a6 6 0 0 1-6-6z" stroke="#000" fill="#fcfcca"/><path d="M-1024-62.6v120m128-120v120" stroke="#000" fill="none"/><g><use xlink:href="#Q" transform="matrix(1,0,0,1,-1015,-57.613487839267236) translate(6.265432098765437 46.111111111111114)"/><use xlink:href="#R" transform="matrix(1,0,0,1,-1015,-57.613487839267236) translate(85.21604938271605 46.111111111111114)"/><use xlink:href="#af" transform="matrix(1,0,0,1,-1015,-57.613487839267236) translate(33.45679012345679 72.77777777777777)"/></g><path d="M-960-579v499.5" stroke="#000" fill="none"/><path d="M-959.5-579h-1v-.5h1z" stroke="#000" stroke-width=".05"/><path d="M-960-64.73L-964.63-79h9.26z" stroke="#000"/><path d="M-879-2.6h23a6 6 0 0 0 6-6V-634a6 6 0 0 1 6-6h7.12" stroke="#000" fill="none"/><path d="M-879-2.1h-.5v-1h.5z" stroke="#000" stroke-width=".05"/><path d="M-822.12-640l-14.26 4.63v-9.26z" stroke="#000"/><path d="M-596.83-56.6a6 6 0 0 1 6-6h148a6 6 0 0 1 6 6v108a6 6 0 0 1-6 6h-148a6 6 0 0 1-6-6z" stroke="#000" fill="#fcfcca"/><path d="M-580.83-62.6v120m128-120v120" stroke="#000" fill="none"/><g><use xlink:href="#Q" transform="matrix(1,0,0,1,-571.8304531948697,-57.613487839267236) translate(6.265432098765437 46.111111111111114)"/><use xlink:href="#R" transform="matrix(1,0,0,1,-571.8304531948697,-57.613487839267236) translate(85.21604938271605 46.111111111111114)"/><use xlink:href="#ag" transform="matrix(1,0,0,1,-571.8304531948697,-57.613487839267236) translate(21.7283950617284 72.77777777777777)"/></g><path d="M102.73-261.1V-8.6a6 6 0 0 1-6 6h-516.68" stroke="#000" fill="none"/><path d="M102.73-261.6l.5-.03v.53h-1v-.53z" stroke="#000" stroke-width=".05"/><path d="M-434.7-2.6l14.25-4.65v9.27z" stroke="#000"/><path d="M-624.98-640.42l1 .24.93.4.87.52.78.66.66.78.53.87.38.94.24.98.08 1v418l.07.88.2.84.33.8.45.73.56.66.67.55.73.45.8.33.84.2.88.07h628.7l.87-.07.83-.2.8-.33.73-.45.66-.56.56-.67.45-.73.33-.8.2-.84.07-.88v-102l.06-.78.18-.78.3-.74.43-.7.53-.6.6-.52.7-.42.74-.3.78-.2.76-.05.1 1-.7.04-.62.15-.6.24-.55.33-.5.42-.4.48-.35.56-.25.6-.15.62-.05.66v102l-.08 1-.23 1-.4.93-.53.87-.67.78-.78.66-.87.53-.94.38-1 .24-1 .08H-614l-1-.08-1-.24-.93-.4-.87-.52-.78-.66-.66-.78-.53-.87-.38-.94-.24-.98-.08-1v-418l-.07-.88-.2-.84-.33-.8-.45-.73-.56-.66-.67-.55-.73-.45-.8-.33-.84-.2-.88-.07H-659v-1h33.02z" stroke="#000" stroke-width=".05"/><path d="M-659-639.5h-.5v-1h.5z"/><path d="M-658.96-639.48h-.56v-1.04h.56zm-.5-1v.96h.45v-.96z" stroke="#000" stroke-width=".05"/><path d="M40.1-322.6L25.86-318v-9.27z"/><path d="M41.73-322.6l-16.38 5.3v-10.64zm-15.38 3.93l12.15-3.94-12.15-3.96z" stroke="#000" stroke-width=".05"/><path d="M-516.83 58.4V404a6 6 0 0 0 6 6H374a6 6 0 0 0 6-6v-82.62a6 6 0 0 1 6-6h40.67" stroke="#000" fill="none"/><path d="M-516.33 58.4h-1v-.5h1z" stroke="#000" stroke-width=".05"/><path d="M441.44 315.4L427.17 320v-9.27z" stroke="#000"/><defs><path fill="#333" d="M33 0v-248h34V0H33" id="ah"/><path fill="#333" d="M210-169c-67 3-38 105-44 169h-31v-121c0-29-5-50-35-48C34-165 62-65 56 0H25l-1-190h30c1 10-1 24 2 32 10-44 99-50 107 0 11-21 27-35 58-36 85-2 47 119 55 194h-31v-121c0-29-5-49-35-48" id="ai"/><path fill="#333" d="M141-36C126-15 110 5 73 4 37 3 15-17 15-53c-1-64 63-63 125-63 3-35-9-54-41-54-24 1-41 7-42 31l-33-3c5-37 33-52 76-52 45 0 72 20 72 64v82c-1 20 7 32 28 27v20c-31 9-61-2-59-35zM48-53c0 20 12 33 32 33 41-3 63-29 60-74-43 2-92-5-92 41" id="aj"/><path fill="#333" d="M177-190C167-65 218 103 67 71c-23-6-38-20-44-43l32-5c15 47 100 32 89-28v-30C133-14 115 1 83 1 29 1 15-40 15-95c0-56 16-97 71-98 29-1 48 16 59 35 1-10 0-23 2-32h30zM94-22c36 0 50-32 50-73 0-42-14-75-50-75-39 0-46 34-46 75s6 73 46 73" id="ak"/><path fill="#333" d="M100-194c63 0 86 42 84 106H49c0 40 14 67 53 68 26 1 43-12 49-29l28 8c-11 28-37 45-77 45C44 4 14-33 15-96c1-61 26-98 85-98zm52 81c6-60-76-77-97-28-3 7-6 17-6 28h103" id="al"/><g id="a"><use transform="matrix(0.061728395061728385,0,0,0.061728395061728385,0,0)" xlink:href="#ah"/><use transform="matrix(0.061728395061728385,0,0,0.061728395061728385,6.1728395061728385,0)" xlink:href="#ai"/><use transform="matrix(0.061728395061728385,0,0,0.061728395061728385,24.629629629629626,0)" xlink:href="#aj"/><use transform="matrix(0.061728395061728385,0,0,0.061728395061728385,36.9753086419753,0)" xlink:href="#ak"/><use transform="matrix(0.061728395061728385,0,0,0.061728395061728385,49.32098765432098,0)" xlink:href="#al"/></g><path fill="#333" d="M137 0h-34L2-248h35l83 218 83-218h36" id="am"/><path fill="#333" d="M24 0v-261h32V0H24" id="an"/><path fill="#333" d="M24-231v-30h32v30H24zM24 0v-190h32V0H24" id="ao"/><path fill="#333" d="M85-194c31 0 48 13 60 33l-1-100h32l1 261h-30c-2-10 0-23-3-31C134-8 116 4 85 4 32 4 16-35 15-94c0-66 23-100 70-100zm9 24c-40 0-46 34-46 75 0 40 6 74 45 74 42 0 51-32 51-76 0-42-9-74-50-73" id="ap"/><path fill="#333" d="M59-47c-2 24 18 29 38 22v24C64 9 27 4 27-40v-127H5v-23h24l9-43h21v43h35v23H59v120" id="aq"/><path fill="#333" d="M100-194c62-1 85 37 85 99 1 63-27 99-86 99S16-35 15-95c0-66 28-99 85-99zM99-20c44 1 53-31 53-75 0-43-8-75-51-75s-53 32-53 75 10 74 51 75" id="ar"/><path fill="#333" d="M117-194c89-4 53 116 60 194h-32v-121c0-31-8-49-39-48C34-167 62-67 57 0H25l-1-190h30c1 10-1 24 2 32 11-22 29-35 61-36" id="as"/><g id="b"><use transform="matrix(0.061728395061728385,0,0,0.061728395061728385,0,0)" xlink:href="#am"/><use transform="matrix(0.061728395061728385,0,0,0.061728395061728385,13.148148148148147,0)" xlink:href="#aj"/><use transform="matrix(0.061728395061728385,0,0,0.061728395061728385,25.493827160493822,0)" xlink:href="#an"/><use transform="matrix(0.061728395061728385,0,0,0.061728395061728385,30.370370370370367,0)" xlink:href="#ao"/><use transform="matrix(0.061728395061728385,0,0,0.061728395061728385,35.24691358024691,0)" xlink:href="#ap"/><use transform="matrix(0.061728395061728385,0,0,0.061728395061728385,47.59259259259259,0)" xlink:href="#aj"/><use transform="matrix(0.061728395061728385,0,0,0.061728395061728385,59.938271604938265,0)" xlink:href="#aq"/><use transform="matrix(0.061728395061728385,0,0,0.061728395061728385,66.1111111111111,0)" xlink:href="#ao"/><use transform="matrix(0.061728395061728385,0,0,0.061728395061728385,70.98765432098764,0)" xlink:href="#ar"/><use transform="matrix(0.061728395061728385,0,0,0.061728395061728385,83.33333333333331,0)" xlink:href="#as"/></g><path fill="#333" d="M185-189c-5-48-123-54-124 2 14 75 158 14 163 119 3 78-121 87-175 55-17-10-28-26-33-46l33-7c5 56 141 63 141-1 0-78-155-14-162-118-5-82 145-84 179-34 5 7 8 16 11 25" id="at"/><path fill="#333" d="M140-251c81 0 123 46 123 126C263-53 228-8 163 1c7 30 30 48 69 40v23c-55 16-95-15-103-61C56-3 17-48 17-125c0-80 42-126 123-126zm0 227c63 0 89-41 89-101s-29-99-89-99c-61 0-89 39-89 99S79-25 140-24" id="au"/><path fill="#333" d="M30 0v-248h33v221h125V0H30" id="av"/><g id="c"><use transform="matrix(0.061728395061728385,0,0,0.061728395061728385,0,0)" xlink:href="#at"/><use transform="matrix(0.061728395061728385,0,0,0.061728395061728385,14.814814814814813,0)" xlink:href="#au"/><use transform="matrix(0.061728395061728385,0,0,0.061728395061728385,32.09876543209876,0)" xlink:href="#av"/></g><path fill="#333" d="M30-248c118-7 216 8 213 122C240-48 200 0 122 0H30v-248zM63-27c89 8 146-16 146-99s-60-101-146-95v194" id="aw"/><path fill="#333" d="M115-194c53 0 69 39 70 98 0 66-23 100-70 100C84 3 66-7 56-30L54 0H23l1-261h32v101c10-23 28-34 59-34zm-8 174c40 0 45-34 45-75 0-40-5-75-45-74-42 0-51 32-51 76 0 43 10 73 51 73" id="ax"/><path fill="#333" d="M135-143c-3-34-86-38-87 0 15 53 115 12 119 90S17 21 10-45l28-5c4 36 97 45 98 0-10-56-113-15-118-90-4-57 82-63 122-42 12 7 21 19 24 35" id="ay"/><g id="d"><use transform="matrix(0.061728395061728385,0,0,0.061728395061728385,0,0)" xlink:href="#aw"/><use transform="matrix(0.061728395061728385,0,0,0.061728395061728385,15.987654320987652,0)" xlink:href="#aj"/><use transform="matrix(0.061728395061728385,0,0,0.061728395061728385,28.33333333333333,0)" xlink:href="#aq"/><use transform="matrix(0.061728395061728385,0,0,0.061728395061728385,34.50617283950616,0)" xlink:href="#aj"/><use transform="matrix(0.061728395061728385,0,0,0.061728395061728385,46.85185185185184,0)" xlink:href="#ax"/><use transform="matrix(0.061728395061728385,0,0,0.061728395061728385,59.19753086419752,0)" xlink:href="#aj"/><use transform="matrix(0.061728395061728385,0,0,0.061728395061728385,71.54320987654319,0)" xlink:href="#ay"/><use transform="matrix(0.061728395061728385,0,0,0.061728395061728385,82.6543209876543,0)" xlink:href="#al"/></g><g id="e"><use transform="matrix(0.061728395061728385,0,0,0.061728395061728385,0,0)" xlink:href="#aw"/><use transform="matrix(0.061728395061728385,0,0,0.061728395061728385,15.987654320987652,0)" xlink:href="#aj"/><use transform="matrix(0.061728395061728385,0,0,0.061728395061728385,28.33333333333333,0)" xlink:href="#aq"/><use transform="matrix(0.061728395061728385,0,0,0.061728395061728385,34.50617283950616,0)" xlink:href="#aj"/></g><path fill="#333" d="M63-220v92h138v28H63V0H30v-248h175v28H63" id="az"/><path fill="#333" d="M206 0h-36l-40-164L89 0H53L-1-190h32L70-26l43-164h34l41 164 42-164h31" id="aA"/><g id="f"><use transform="matrix(0.061728395061728385,0,0,0.061728395061728385,0,0)" xlink:href="#az"/><use transform="matrix(0.061728395061728385,0,0,0.061728395061728385,13.518518518518515,0)" xlink:href="#an"/><use transform="matrix(0.061728395061728385,0,0,0.061728395061728385,18.395061728395056,0)" xlink:href="#ar"/><use transform="matrix(0.061728395061728385,0,0,0.061728395061728385,30.740740740740733,0)" xlink:href="#aA"/></g><path fill="#333" d="M205 0l-28-72H64L36 0H1l101-248h38L239 0h-34zm-38-99l-47-123c-12 45-31 82-46 123h93" id="aB"/><path fill="#333" d="M9 0v-24l116-142H16v-24h144v24L44-24h123V0H9" id="aC"/><path fill="#333" d="M84 4C-5 8 30-112 23-190h32v120c0 31 7 50 39 49 72-2 45-101 50-169h31l1 190h-30c-1-10 1-25-2-33-11 22-28 36-60 37" id="aD"/><path fill="#333" d="M114-163C36-179 61-72 57 0H25l-1-190h30c1 12-1 29 2 39 6-27 23-49 58-41v29" id="aE"/><g id="g"><use transform="matrix(0.061728395061728385,0,0,0.061728395061728385,0,0)" xlink:href="#aB"/><use transform="matrix(0.061728395061728385,0,0,0.061728395061728385,14.814814814814813,0)" xlink:href="#aC"/><use transform="matrix(0.061728395061728385,0,0,0.061728395061728385,25.925925925925924,0)" xlink:href="#aD"/><use transform="matrix(0.061728395061728385,0,0,0.061728395061728385,38.2716049382716,0)" xlink:href="#aE"/><use transform="matrix(0.061728395061728385,0,0,0.061728395061728385,45.61728395061728,0)" xlink:href="#al"/></g><path fill="#333" d="M240 0l2-218c-23 76-54 145-80 218h-23L58-218 59 0H30v-248h44l77 211c21-75 51-140 76-211h43V0h-30" id="aF"/><path fill="#333" d="M96-169c-40 0-48 33-48 73s9 75 48 75c24 0 41-14 43-38l32 2c-6 37-31 61-74 61-59 0-76-41-82-99-10-93 101-131 147-64 4 7 5 14 7 22l-32 3c-4-21-16-35-41-35" id="aG"/><path fill="#333" d="M106-169C34-169 62-67 57 0H25v-261h32l-1 103c12-21 28-36 61-36 89 0 53 116 60 194h-32v-121c2-32-8-49-39-48" id="aH"/><g id="h"><use transform="matrix(0.061728395061728385,0,0,0.061728395061728385,0,0)" xlink:href="#aF"/><use transform="matrix(0.061728395061728385,0,0,0.061728395061728385,18.456790123456788,0)" xlink:href="#aj"/><use transform="matrix(0.061728395061728385,0,0,0.061728395061728385,30.802469135802465,0)" xlink:href="#aG"/><use transform="matrix(0.061728395061728385,0,0,0.061728395061728385,41.913580246913575,0)" xlink:href="#aH"/><use transform="matrix(0.061728395061728385,0,0,0.061728395061728385,54.25925925925925,0)" xlink:href="#ao"/><use transform="matrix(0.061728395061728385,0,0,0.061728395061728385,59.1358024691358,0)" xlink:href="#as"/><use transform="matrix(0.061728395061728385,0,0,0.061728395061728385,71.48148148148147,0)" xlink:href="#al"/></g><g id="i"><use transform="matrix(0.061728395061728385,0,0,0.061728395061728385,0,0)" xlink:href="#av"/><use transform="matrix(0.061728395061728385,0,0,0.061728395061728385,12.345679012345677,0)" xlink:href="#al"/><use transform="matrix(0.061728395061728385,0,0,0.061728395061728385,24.691358024691354,0)" xlink:href="#aj"/><use transform="matrix(0.061728395061728385,0,0,0.061728395061728385,37.03703703703703,0)" xlink:href="#aE"/><use transform="matrix(0.061728395061728385,0,0,0.061728395061728385,44.38271604938271,0)" xlink:href="#as"/><use transform="matrix(0.061728395061728385,0,0,0.061728395061728385,56.728395061728385,0)" xlink:href="#ao"/><use transform="matrix(0.061728395061728385,0,0,0.061728395061728385,61.60493827160493,0)" xlink:href="#as"/><use transform="matrix(0.061728395061728385,0,0,0.061728395061728385,73.9506172839506,0)" xlink:href="#ak"/></g><path fill="#333" d="M30 0v-248h187v28H63v79h144v27H63v87h162V0H30" id="aI"/><g id="j"><use transform="matrix(0.06172839506172839,0,0,0.06172839506172839,0,0)" xlink:href="#aI"/><use transform="matrix(0.06172839506172839,0,0,0.06172839506172839,14.814814814814813,0)" xlink:href="#ai"/><use transform="matrix(0.06172839506172839,0,0,0.06172839506172839,33.2716049382716,0)" xlink:href="#aj"/><use transform="matrix(0.06172839506172839,0,0,0.06172839506172839,45.61728395061728,0)" xlink:href="#ao"/><use transform="matrix(0.06172839506172839,0,0,0.06172839506172839,50.49382716049382,0)" xlink:href="#an"/></g><g id="k"><use transform="matrix(0.06172839506172839,0,0,0.06172839506172839,0,0)" xlink:href="#az"/><use transform="matrix(0.06172839506172839,0,0,0.06172839506172839,13.518518518518517,0)" xlink:href="#ar"/><use transform="matrix(0.06172839506172839,0,0,0.06172839506172839,25.864197530864196,0)" xlink:href="#aE"/><use transform="matrix(0.06172839506172839,0,0,0.06172839506172839,33.20987654320987,0)" xlink:href="#ai"/></g><path fill="#333" d="M232-93c-1 65-40 97-104 97C67 4 28-28 28-90v-158h33c8 89-33 224 67 224 102 0 64-133 71-224h33v155" id="aJ"/><g id="l"><use transform="matrix(0.06172839506172839,0,0,0.06172839506172839,0,0)" xlink:href="#aJ"/><use transform="matrix(0.06172839506172839,0,0,0.06172839506172839,15.987654320987653,0)" xlink:href="#ay"/><use transform="matrix(0.06172839506172839,0,0,0.06172839506172839,27.098765432098766,0)" xlink:href="#al"/><use transform="matrix(0.06172839506172839,0,0,0.06172839506172839,39.44444444444444,0)" xlink:href="#aE"/></g><g id="m"><use transform="matrix(0.06172839506172839,0,0,0.06172839506172839,0,0)" xlink:href="#al"/><use transform="matrix(0.06172839506172839,0,0,0.06172839506172839,12.345679012345679,0)" xlink:href="#as"/><use transform="matrix(0.06172839506172839,0,0,0.06172839506172839,24.691358024691358,0)" xlink:href="#aq"/><use transform="matrix(0.06172839506172839,0,0,0.06172839506172839,30.864197530864196,0)" xlink:href="#al"/><use transform="matrix(0.06172839506172839,0,0,0.06172839506172839,43.20987654320987,0)" xlink:href="#aE"/><use transform="matrix(0.06172839506172839,0,0,0.06172839506172839,50.55555555555555,0)" xlink:href="#ay"/></g><g id="n"><use transform="matrix(0.06172839506172839,0,0,0.06172839506172839,0,0)" xlink:href="#al"/><use transform="matrix(0.06172839506172839,0,0,0.06172839506172839,12.345679012345679,0)" xlink:href="#ai"/><use transform="matrix(0.06172839506172839,0,0,0.06172839506172839,30.80246913580247,0)" xlink:href="#aj"/><use transform="matrix(0.06172839506172839,0,0,0.06172839506172839,43.148148148148145,0)" xlink:href="#ao"/><use transform="matrix(0.06172839506172839,0,0,0.06172839506172839,48.02469135802469,0)" xlink:href="#an"/></g><g id="o"><use transform="matrix(0.06172839506172839,0,0,0.06172839506172839,0,0)" xlink:href="#aB"/><use transform="matrix(0.06172839506172839,0,0,0.06172839506172839,14.814814814814813,0)" xlink:href="#aG"/><use transform="matrix(0.06172839506172839,0,0,0.06172839506172839,25.925925925925924,0)" xlink:href="#aG"/><use transform="matrix(0.06172839506172839,0,0,0.06172839506172839,37.03703703703704,0)" xlink:href="#al"/><use transform="matrix(0.06172839506172839,0,0,0.06172839506172839,49.382716049382715,0)" xlink:href="#ay"/><use transform="matrix(0.06172839506172839,0,0,0.06172839506172839,60.49382716049382,0)" xlink:href="#ay"/></g><path fill="#333" d="M233-177c-1 41-23 64-60 70L243 0h-38l-65-103H63V0H30v-248c88 3 205-21 203 71zM63-129c60-2 137 13 137-47 0-61-80-42-137-45v92" id="aK"/><path fill="#333" d="M127-220V0H93v-220H8v-28h204v28h-85" id="aL"/><g id="p"><use transform="matrix(0.06172839506172839,0,0,0.06172839506172839,0,0)" xlink:href="#aK"/><use transform="matrix(0.06172839506172839,0,0,0.06172839506172839,15.987654320987653,0)" xlink:href="#aI"/><use transform="matrix(0.06172839506172839,0,0,0.06172839506172839,30.80246913580247,0)" xlink:href="#at"/><use transform="matrix(0.06172839506172839,0,0,0.06172839506172839,45.61728395061728,0)" xlink:href="#aL"/></g><path fill="#333" d="M30-248c87 1 191-15 191 75 0 78-77 80-158 76V0H30v-248zm33 125c57 0 124 11 124-50 0-59-68-47-124-48v98" id="aM"/><g id="q"><use transform="matrix(0.06172839506172839,0,0,0.06172839506172839,0,0)" xlink:href="#aB"/><use transform="matrix(0.06172839506172839,0,0,0.06172839506172839,14.814814814814813,0)" xlink:href="#aM"/><use transform="matrix(0.06172839506172839,0,0,0.06172839506172839,29.629629629629626,0)" xlink:href="#ah"/></g><path fill="#282c33" d="M33 0v-248h34V0H33" id="aN"/><path fill="#282c33" d="M210-169c-67 3-38 105-44 169h-31v-121c0-29-5-50-35-48C34-165 62-65 56 0H25l-1-190h30c1 10-1 24 2 32 10-44 99-50 107 0 11-21 27-35 58-36 85-2 47 119 55 194h-31v-121c0-29-5-49-35-48" id="aO"/><path fill="#282c33" d="M141-36C126-15 110 5 73 4 37 3 15-17 15-53c-1-64 63-63 125-63 3-35-9-54-41-54-24 1-41 7-42 31l-33-3c5-37 33-52 76-52 45 0 72 20 72 64v82c-1 20 7 32 28 27v20c-31 9-61-2-59-35zM48-53c0 20 12 33 32 33 41-3 63-29 60-74-43 2-92-5-92 41" id="aP"/><path fill="#282c33" d="M177-190C167-65 218 103 67 71c-23-6-38-20-44-43l32-5c15 47 100 32 89-28v-30C133-14 115 1 83 1 29 1 15-40 15-95c0-56 16-97 71-98 29-1 48 16 59 35 1-10 0-23 2-32h30zM94-22c36 0 50-32 50-73 0-42-14-75-50-75-39 0-46 34-46 75s6 73 46 73" id="aQ"/><path fill="#282c33" d="M100-194c63 0 86 42 84 106H49c0 40 14 67 53 68 26 1 43-12 49-29l28 8c-11 28-37 45-77 45C44 4 14-33 15-96c1-61 26-98 85-98zm52 81c6-60-76-77-97-28-3 7-6 17-6 28h103" id="aR"/><path fill="#282c33" d="M135-143c-3-34-86-38-87 0 15 53 115 12 119 90S17 21 10-45l28-5c4 36 97 45 98 0-10-56-113-15-118-90-4-57 82-63 122-42 12 7 21 19 24 35" id="aS"/><g id="r"><use transform="matrix(0.06172839506172839,0,0,0.06172839506172839,0,0)" xlink:href="#aN"/><use transform="matrix(0.06172839506172839,0,0,0.06172839506172839,6.172839506172839,0)" xlink:href="#aO"/><use transform="matrix(0.06172839506172839,0,0,0.06172839506172839,24.629629629629626,0)" xlink:href="#aP"/><use transform="matrix(0.06172839506172839,0,0,0.06172839506172839,36.9753086419753,0)" xlink:href="#aQ"/><use transform="matrix(0.06172839506172839,0,0,0.06172839506172839,49.32098765432098,0)" xlink:href="#aR"/><use transform="matrix(0.06172839506172839,0,0,0.06172839506172839,61.66666666666666,0)" xlink:href="#aS"/></g><path fill="#282c33" d="M59-47c-2 24 18 29 38 22v24C64 9 27 4 27-40v-127H5v-23h24l9-43h21v43h35v23H59v120" id="aT"/><path fill="#282c33" d="M100-194c62-1 85 37 85 99 1 63-27 99-86 99S16-35 15-95c0-66 28-99 85-99zM99-20c44 1 53-31 53-75 0-43-8-75-51-75s-53 32-53 75 10 74 51 75" id="aU"/><g id="s"><use transform="matrix(0.06172839506172839,0,0,0.06172839506172839,0,0)" xlink:href="#aT"/><use transform="matrix(0.06172839506172839,0,0,0.06172839506172839,6.172839506172839,0)" xlink:href="#aU"/></g><path fill="#282c33" d="M24 0v-261h32V0H24" id="aV"/><path fill="#282c33" d="M115-194c53 0 69 39 70 98 0 66-23 100-70 100C84 3 66-7 56-30L54 0H23l1-261h32v101c10-23 28-34 59-34zm-8 174c40 0 45-34 45-75 0-40-5-75-45-74-42 0-51 32-51 76 0 43 10 73 51 73" id="aW"/><g id="t"><use transform="matrix(0.06172839506172839,0,0,0.06172839506172839,0,0)" xlink:href="#aV"/><use transform="matrix(0.06172839506172839,0,0,0.06172839506172839,4.876543209876543,0)" xlink:href="#aP"/><use transform="matrix(0.06172839506172839,0,0,0.06172839506172839,17.22222222222222,0)" xlink:href="#aW"/><use transform="matrix(0.06172839506172839,0,0,0.06172839506172839,29.5679012345679,0)" xlink:href="#aR"/><use transform="matrix(0.06172839506172839,0,0,0.06172839506172839,41.913580246913575,0)" xlink:href="#aV"/></g><path fill="#282c33" d="M232-93c-1 65-40 97-104 97C67 4 28-28 28-90v-158h33c8 89-33 224 67 224 102 0 64-133 71-224h33v155" id="aX"/><path fill="#282c33" d="M114-163C36-179 61-72 57 0H25l-1-190h30c1 12-1 29 2 39 6-27 23-49 58-41v29" id="aY"/><g id="u"><use transform="matrix(0.06172839506172839,0,0,0.06172839506172839,0,0)" xlink:href="#aX"/><use transform="matrix(0.06172839506172839,0,0,0.06172839506172839,15.987654320987653,0)" xlink:href="#aS"/><use transform="matrix(0.06172839506172839,0,0,0.06172839506172839,27.098765432098766,0)" xlink:href="#aR"/><use transform="matrix(0.06172839506172839,0,0,0.06172839506172839,39.44444444444444,0)" xlink:href="#aY"/></g><path fill="#282c33" d="M127-220V0H93v-220H8v-28h204v28h-85" id="aZ"/><g id="v"><use transform="matrix(0.06172839506172839,0,0,0.06172839506172839,0,0)" xlink:href="#aZ"/><use transform="matrix(0.06172839506172839,0,0,0.06172839506172839,11.049382716049381,0)" xlink:href="#aP"/><use transform="matrix(0.06172839506172839,0,0,0.06172839506172839,23.39506172839506,0)" xlink:href="#aW"/><use transform="matrix(0.06172839506172839,0,0,0.06172839506172839,35.74074074074074,0)" xlink:href="#aV"/><use transform="matrix(0.06172839506172839,0,0,0.06172839506172839,40.617283950617285,0)" xlink:href="#aR"/></g><path fill="#333" d="M101-234c-31-9-42 10-38 44h38v23H63V0H32v-167H5v-23h27c-7-52 17-82 69-68v24" id="ba"/><g id="w"><use transform="matrix(0.04938271604938272,0,0,0.04938271604938272,0,0)" xlink:href="#ah"/><use transform="matrix(0.04938271604938272,0,0,0.04938271604938272,4.938271604938272,0)" xlink:href="#ba"/></g><g id="x"><use transform="matrix(0.04938271604938272,0,0,0.04938271604938272,0,0)" xlink:href="#aD"/><use transform="matrix(0.04938271604938272,0,0,0.04938271604938272,9.876543209876544,0)" xlink:href="#ay"/><use transform="matrix(0.04938271604938272,0,0,0.04938271604938272,18.765432098765434,0)" xlink:href="#al"/><use transform="matrix(0.04938271604938272,0,0,0.04938271604938272,28.641975308641978,0)" xlink:href="#aE"/></g><g id="y"><use transform="matrix(0.04938271604938272,0,0,0.04938271604938272,0,0)" xlink:href="#ap"/><use transform="matrix(0.04938271604938272,0,0,0.04938271604938272,9.876543209876544,0)" xlink:href="#ar"/><use transform="matrix(0.04938271604938272,0,0,0.04938271604938272,19.75308641975309,0)" xlink:href="#al"/><use transform="matrix(0.04938271604938272,0,0,0.04938271604938272,29.629629629629633,0)" xlink:href="#ay"/></g><g id="z"><use transform="matrix(0.04938271604938272,0,0,0.04938271604938272,0,0)" xlink:href="#as"/><use transform="matrix(0.04938271604938272,0,0,0.04938271604938272,9.876543209876544,0)" xlink:href="#ar"/><use transform="matrix(0.04938271604938272,0,0,0.04938271604938272,19.75308641975309,0)" xlink:href="#aq"/></g><path fill="#333" d="M141 0L90-78 38 0H4l68-98-65-92h35l48 74 47-74h35l-64 92 68 98h-35" id="bb"/><g id="A"><use transform="matrix(0.04938271604938272,0,0,0.04938271604938272,0,0)" xlink:href="#al"/><use transform="matrix(0.04938271604938272,0,0,0.04938271604938272,9.876543209876544,0)" xlink:href="#bb"/><use transform="matrix(0.04938271604938272,0,0,0.04938271604938272,18.765432098765434,0)" xlink:href="#ao"/><use transform="matrix(0.04938271604938272,0,0,0.04938271604938272,22.666666666666668,0)" xlink:href="#ay"/><use transform="matrix(0.04938271604938272,0,0,0.04938271604938272,31.555555555555557,0)" xlink:href="#aq"/></g><g id="B"><use transform="matrix(0.04938271604938272,0,0,0.04938271604938272,0,0)" xlink:href="#al"/><use transform="matrix(0.04938271604938272,0,0,0.04938271604938272,9.876543209876544,0)" xlink:href="#bb"/><use transform="matrix(0.04938271604938272,0,0,0.04938271604938272,18.765432098765434,0)" xlink:href="#ao"/><use transform="matrix(0.04938271604938272,0,0,0.04938271604938272,22.666666666666668,0)" xlink:href="#ay"/><use transform="matrix(0.04938271604938272,0,0,0.04938271604938272,31.555555555555557,0)" xlink:href="#aq"/><use transform="matrix(0.04938271604938272,0,0,0.04938271604938272,36.49382716049383,0)" xlink:href="#ay"/></g><g id="C"><use transform="matrix(0.06172839506172839,0,0,0.06172839506172839,0,0)" xlink:href="#at"/><use transform="matrix(0.06172839506172839,0,0,0.06172839506172839,14.814814814814813,0)" xlink:href="#al"/><use transform="matrix(0.06172839506172839,0,0,0.06172839506172839,27.160493827160494,0)" xlink:href="#ay"/><use transform="matrix(0.06172839506172839,0,0,0.06172839506172839,38.27160493827161,0)" xlink:href="#ay"/><use transform="matrix(0.06172839506172839,0,0,0.06172839506172839,49.38271604938272,0)" xlink:href="#ao"/><use transform="matrix(0.06172839506172839,0,0,0.06172839506172839,54.25925925925927,0)" xlink:href="#ar"/><use transform="matrix(0.06172839506172839,0,0,0.06172839506172839,66.60493827160495,0)" xlink:href="#as"/></g><path fill="#282c33" d="M240 0l2-218c-23 76-54 145-80 218h-23L58-218 59 0H30v-248h44l77 211c21-75 51-140 76-211h43V0h-30" id="bc"/><path fill="#282c33" d="M85-194c31 0 48 13 60 33l-1-100h32l1 261h-30c-2-10 0-23-3-31C134-8 116 4 85 4 32 4 16-35 15-94c0-66 23-100 70-100zm9 24c-40 0-46 34-46 75 0 40 6 74 45 74 42 0 51-32 51-76 0-42-9-74-50-73" id="bd"/><g id="D"><use transform="matrix(0.06172839506172839,0,0,0.06172839506172839,0,0)" xlink:href="#bc"/><use transform="matrix(0.06172839506172839,0,0,0.06172839506172839,18.456790123456788,0)" xlink:href="#aU"/><use transform="matrix(0.06172839506172839,0,0,0.06172839506172839,30.80246913580247,0)" xlink:href="#bd"/><use transform="matrix(0.06172839506172839,0,0,0.06172839506172839,43.148148148148145,0)" xlink:href="#aR"/><use transform="matrix(0.06172839506172839,0,0,0.06172839506172839,55.49382716049382,0)" xlink:href="#aV"/></g><path fill="#282c33" d="M30-248c118-7 216 8 213 122C240-48 200 0 122 0H30v-248zM63-27c89 8 146-16 146-99s-60-101-146-95v194" id="be"/><path fill="#282c33" d="M24-231v-30h32v30H24zM24 0v-190h32V0H24" id="bf"/><path fill="#282c33" d="M179-190L93 31C79 59 56 82 12 73V49c39 6 53-20 64-50L1-190h34L92-34l54-156h33" id="bg"/><g id="E"><use transform="matrix(0.06172839506172839,0,0,0.06172839506172839,0,0)" xlink:href="#be"/><use transform="matrix(0.06172839506172839,0,0,0.06172839506172839,15.987654320987653,0)" xlink:href="#bf"/><use transform="matrix(0.06172839506172839,0,0,0.06172839506172839,20.864197530864196,0)" xlink:href="#aS"/><use transform="matrix(0.06172839506172839,0,0,0.06172839506172839,31.975308641975307,0)" xlink:href="#aS"/><use transform="matrix(0.06172839506172839,0,0,0.06172839506172839,43.08641975308642,0)" xlink:href="#bf"/><use transform="matrix(0.06172839506172839,0,0,0.06172839506172839,47.96296296296296,0)" xlink:href="#aO"/><use transform="matrix(0.06172839506172839,0,0,0.06172839506172839,66.41975308641975,0)" xlink:href="#bf"/><use transform="matrix(0.06172839506172839,0,0,0.06172839506172839,71.29629629629629,0)" xlink:href="#aV"/><use transform="matrix(0.06172839506172839,0,0,0.06172839506172839,76.17283950617283,0)" xlink:href="#aP"/><use transform="matrix(0.06172839506172839,0,0,0.06172839506172839,88.51851851851852,0)" xlink:href="#aY"/><use transform="matrix(0.06172839506172839,0,0,0.06172839506172839,95.8641975308642,0)" xlink:href="#bf"/><use transform="matrix(0.06172839506172839,0,0,0.06172839506172839,100.74074074074075,0)" xlink:href="#aT"/><use transform="matrix(0.06172839506172839,0,0,0.06172839506172839,106.91358024691358,0)" xlink:href="#bg"/></g><g id="F"><use transform="matrix(0.06172839506172839,0,0,0.06172839506172839,0,0)" xlink:href="#aN"/><use transform="matrix(0.06172839506172839,0,0,0.06172839506172839,6.172839506172839,0)" xlink:href="#aO"/><use transform="matrix(0.06172839506172839,0,0,0.06172839506172839,24.629629629629626,0)" xlink:href="#aP"/><use transform="matrix(0.06172839506172839,0,0,0.06172839506172839,36.9753086419753,0)" xlink:href="#aQ"/><use transform="matrix(0.06172839506172839,0,0,0.06172839506172839,49.32098765432098,0)" xlink:href="#aR"/></g><g id="G"><use transform="matrix(0.06172839506172839,0,0,0.06172839506172839,0,0)" xlink:href="#av"/><use transform="matrix(0.06172839506172839,0,0,0.06172839506172839,12.345679012345679,0)" xlink:href="#aj"/><use transform="matrix(0.06172839506172839,0,0,0.06172839506172839,24.691358024691358,0)" xlink:href="#ax"/><use transform="matrix(0.06172839506172839,0,0,0.06172839506172839,37.03703703703704,0)" xlink:href="#al"/><use transform="matrix(0.06172839506172839,0,0,0.06172839506172839,49.382716049382715,0)" xlink:href="#an"/></g><path fill="#282c33" d="M30 0v-248h33v221h125V0H30" id="bh"/><g id="H"><use transform="matrix(0.06172839506172839,0,0,0.06172839506172839,0,0)" xlink:href="#bh"/><use transform="matrix(0.06172839506172839,0,0,0.06172839506172839,12.345679012345679,0)" xlink:href="#aP"/><use transform="matrix(0.06172839506172839,0,0,0.06172839506172839,24.691358024691358,0)" xlink:href="#aW"/><use transform="matrix(0.06172839506172839,0,0,0.06172839506172839,37.03703703703704,0)" xlink:href="#aR"/><use transform="matrix(0.06172839506172839,0,0,0.06172839506172839,49.382716049382715,0)" xlink:href="#aV"/></g><path fill="#3a414a" d="M30-248c118-7 216 8 213 122C240-48 200 0 122 0H30v-248zM63-27c89 8 146-16 146-99s-60-101-146-95v194" id="bi"/><path fill="#3a414a" d="M100-194c63 0 86 42 84 106H49c0 40 14 67 53 68 26 1 43-12 49-29l28 8c-11 28-37 45-77 45C44 4 14-33 15-96c1-61 26-98 85-98zm52 81c6-60-76-77-97-28-3 7-6 17-6 28h103" id="bj"/><path fill="#3a414a" d="M115-194c55 1 70 41 70 98S169 2 115 4C84 4 66-9 55-30l1 105H24l-1-265h31l2 30c10-21 28-34 59-34zm-8 174c40 0 45-34 45-75s-6-73-45-74c-42 0-51 32-51 76 0 43 10 73 51 73" id="bk"/><path fill="#3a414a" d="M24 0v-261h32V0H24" id="bl"/><path fill="#3a414a" d="M100-194c62-1 85 37 85 99 1 63-27 99-86 99S16-35 15-95c0-66 28-99 85-99zM99-20c44 1 53-31 53-75 0-43-8-75-51-75s-53 32-53 75 10 74 51 75" id="bm"/><path fill="#3a414a" d="M179-190L93 31C79 59 56 82 12 73V49c39 6 53-20 64-50L1-190h34L92-34l54-156h33" id="bn"/><g id="I"><use transform="matrix(0.06172839506172839,0,0,0.06172839506172839,0,0)" xlink:href="#bi"/><use transform="matrix(0.06172839506172839,0,0,0.06172839506172839,15.987654320987653,0)" xlink:href="#bj"/><use transform="matrix(0.06172839506172839,0,0,0.06172839506172839,28.333333333333332,0)" xlink:href="#bk"/><use transform="matrix(0.06172839506172839,0,0,0.06172839506172839,40.67901234567901,0)" xlink:href="#bl"/><use transform="matrix(0.06172839506172839,0,0,0.06172839506172839,45.55555555555556,0)" xlink:href="#bm"/><use transform="matrix(0.06172839506172839,0,0,0.06172839506172839,57.901234567901234,0)" xlink:href="#bn"/></g><path fill="#3a414a" d="M30 0v-248h33v221h125V0H30" id="bo"/><path fill="#3a414a" d="M177-190C167-65 218 103 67 71c-23-6-38-20-44-43l32-5c15 47 100 32 89-28v-30C133-14 115 1 83 1 29 1 15-40 15-95c0-56 16-97 71-98 29-1 48 16 59 35 1-10 0-23 2-32h30zM94-22c36 0 50-32 50-73 0-42-14-75-50-75-39 0-46 34-46 75s6 73 46 73" id="bp"/><g id="J"><use transform="matrix(0.06172839506172839,0,0,0.06172839506172839,0,0)" xlink:href="#bo"/><use transform="matrix(0.06172839506172839,0,0,0.06172839506172839,12.345679012345679,0)" xlink:href="#bm"/><use transform="matrix(0.06172839506172839,0,0,0.06172839506172839,24.691358024691358,0)" xlink:href="#bp"/></g><path fill="#3a414a" d="M117-194c89-4 53 116 60 194h-32v-121c0-31-8-49-39-48C34-167 62-67 57 0H25l-1-190h30c1 10-1 24 2 32 11-22 29-35 61-36" id="bq"/><g id="K"><use transform="matrix(0.06172839506172839,0,0,0.06172839506172839,0,0)" xlink:href="#bm"/><use transform="matrix(0.06172839506172839,0,0,0.06172839506172839,12.345679012345679,0)" xlink:href="#bq"/></g><path fill="#3a414a" d="M240 0l2-218c-23 76-54 145-80 218h-23L58-218 59 0H30v-248h44l77 211c21-75 51-140 76-211h43V0h-30" id="br"/><path fill="#3a414a" d="M16-82v-28h88v28H16" id="bs"/><path fill="#3a414a" d="M63-220v92h138v28H63V0H30v-248h175v28H63" id="bt"/><path fill="#3a414a" d="M206 0h-36l-40-164L89 0H53L-1-190h32L70-26l43-164h34l41 164 42-164h31" id="bu"/><g id="L"><use transform="matrix(0.06172839506172839,0,0,0.06172839506172839,0,0)" xlink:href="#br"/><use transform="matrix(0.06172839506172839,0,0,0.06172839506172839,18.456790123456788,0)" xlink:href="#bo"/><use transform="matrix(0.06172839506172839,0,0,0.06172839506172839,30.80246913580247,0)" xlink:href="#bs"/><use transform="matrix(0.06172839506172839,0,0,0.06172839506172839,38.148148148148145,0)" xlink:href="#bt"/><use transform="matrix(0.06172839506172839,0,0,0.06172839506172839,51.666666666666664,0)" xlink:href="#bl"/><use transform="matrix(0.06172839506172839,0,0,0.06172839506172839,56.54320987654321,0)" xlink:href="#bm"/><use transform="matrix(0.06172839506172839,0,0,0.06172839506172839,68.88888888888889,0)" xlink:href="#bu"/></g><path fill="#3a414a" d="M212-179c-10-28-35-45-73-45-59 0-87 40-87 99 0 60 29 101 89 101 43 0 62-24 78-52l27 14C228-24 195 4 139 4 59 4 22-46 18-125c-6-104 99-153 187-111 19 9 31 26 39 46" id="bv"/><path fill="#3a414a" d="M114-163C36-179 61-72 57 0H25l-1-190h30c1 12-1 29 2 39 6-27 23-49 58-41v29" id="bw"/><path fill="#3a414a" d="M141-36C126-15 110 5 73 4 37 3 15-17 15-53c-1-64 63-63 125-63 3-35-9-54-41-54-24 1-41 7-42 31l-33-3c5-37 33-52 76-52 45 0 72 20 72 64v82c-1 20 7 32 28 27v20c-31 9-61-2-59-35zM48-53c0 20 12 33 32 33 41-3 63-29 60-74-43 2-92-5-92 41" id="bx"/><path fill="#3a414a" d="M59-47c-2 24 18 29 38 22v24C64 9 27 4 27-40v-127H5v-23h24l9-43h21v43h35v23H59v120" id="by"/><g id="M"><use transform="matrix(0.06172839506172839,0,0,0.06172839506172839,0,0)" xlink:href="#bv"/><use transform="matrix(0.06172839506172839,0,0,0.06172839506172839,15.987654320987653,0)" xlink:href="#bw"/><use transform="matrix(0.06172839506172839,0,0,0.06172839506172839,23.333333333333332,0)" xlink:href="#bj"/><use transform="matrix(0.06172839506172839,0,0,0.06172839506172839,35.67901234567901,0)" xlink:href="#bx"/><use transform="matrix(0.06172839506172839,0,0,0.06172839506172839,48.02469135802469,0)" xlink:href="#by"/><use transform="matrix(0.06172839506172839,0,0,0.06172839506172839,54.19753086419753,0)" xlink:href="#bj"/></g><path fill="#3a414a" d="M24-231v-30h32v30H24zM24 0v-190h32V0H24" id="bz"/><path fill="#3a414a" d="M210-169c-67 3-38 105-44 169h-31v-121c0-29-5-50-35-48C34-165 62-65 56 0H25l-1-190h30c1 10-1 24 2 32 10-44 99-50 107 0 11-21 27-35 58-36 85-2 47 119 55 194h-31v-121c0-29-5-49-35-48" id="bA"/><g id="N"><use transform="matrix(0.06172839506172839,0,0,0.06172839506172839,0,0)" xlink:href="#bw"/><use transform="matrix(0.06172839506172839,0,0,0.06172839506172839,7.345679012345679,0)" xlink:href="#bj"/><use transform="matrix(0.06172839506172839,0,0,0.06172839506172839,19.691358024691358,0)" xlink:href="#bx"/><use transform="matrix(0.06172839506172839,0,0,0.06172839506172839,32.03703703703704,0)" xlink:href="#bl"/><use transform="matrix(0.06172839506172839,0,0,0.06172839506172839,36.91358024691358,0)" xlink:href="#bs"/><use transform="matrix(0.06172839506172839,0,0,0.06172839506172839,44.25925925925926,0)" xlink:href="#by"/><use transform="matrix(0.06172839506172839,0,0,0.06172839506172839,50.4320987654321,0)" xlink:href="#bz"/><use transform="matrix(0.06172839506172839,0,0,0.06172839506172839,55.308641975308646,0)" xlink:href="#bA"/><use transform="matrix(0.06172839506172839,0,0,0.06172839506172839,73.76543209876543,0)" xlink:href="#bj"/></g><path fill="#3a414a" d="M85-194c31 0 48 13 60 33l-1-100h32l1 261h-30c-2-10 0-23-3-31C134-8 116 4 85 4 32 4 16-35 15-94c0-66 23-100 70-100zm9 24c-40 0-46 34-46 75 0 40 6 74 45 74 42 0 51-32 51-76 0-42-9-74-50-73" id="bB"/><g id="O"><use transform="matrix(0.06172839506172839,0,0,0.06172839506172839,0,0)" xlink:href="#bj"/><use transform="matrix(0.06172839506172839,0,0,0.06172839506172839,12.345679012345679,0)" xlink:href="#bq"/><use transform="matrix(0.06172839506172839,0,0,0.06172839506172839,24.691358024691358,0)" xlink:href="#bB"/><use transform="matrix(0.06172839506172839,0,0,0.06172839506172839,37.03703703703704,0)" xlink:href="#bk"/><use transform="matrix(0.06172839506172839,0,0,0.06172839506172839,49.382716049382715,0)" xlink:href="#bm"/><use transform="matrix(0.06172839506172839,0,0,0.06172839506172839,61.72839506172839,0)" xlink:href="#bz"/><use transform="matrix(0.06172839506172839,0,0,0.06172839506172839,66.60493827160494,0)" xlink:href="#bq"/><use transform="matrix(0.06172839506172839,0,0,0.06172839506172839,78.95061728395062,0)" xlink:href="#by"/></g><path fill="#282c33" d="M30-248c87 1 191-15 191 75 0 78-77 80-158 76V0H30v-248zm33 125c57 0 124 11 124-50 0-59-68-47-124-48v98" id="bC"/><path fill="#282c33" d="M96-169c-40 0-48 33-48 73s9 75 48 75c24 0 41-14 43-38l32 2c-6 37-31 61-74 61-59 0-76-41-82-99-10-93 101-131 147-64 4 7 5 14 7 22l-32 3c-4-21-16-35-41-35" id="bD"/><path fill="#282c33" d="M117-194c89-4 53 116 60 194h-32v-121c0-31-8-49-39-48C34-167 62-67 57 0H25l-1-190h30c1 10-1 24 2 32 11-22 29-35 61-36" id="bE"/><g id="P"><use transform="matrix(0.06172839506172839,0,0,0.06172839506172839,0,0)" xlink:href="#bC"/><use transform="matrix(0.06172839506172839,0,0,0.06172839506172839,14.814814814814813,0)" xlink:href="#aY"/><use transform="matrix(0.06172839506172839,0,0,0.06172839506172839,22.160493827160494,0)" xlink:href="#aR"/><use transform="matrix(0.06172839506172839,0,0,0.06172839506172839,34.50617283950617,0)" xlink:href="#bd"/><use transform="matrix(0.06172839506172839,0,0,0.06172839506172839,46.85185185185185,0)" xlink:href="#bf"/><use transform="matrix(0.06172839506172839,0,0,0.06172839506172839,51.72839506172839,0)" xlink:href="#bD"/><use transform="matrix(0.06172839506172839,0,0,0.06172839506172839,62.839506172839506,0)" xlink:href="#aT"/><use transform="matrix(0.06172839506172839,0,0,0.06172839506172839,69.01234567901234,0)" xlink:href="#bf"/><use transform="matrix(0.06172839506172839,0,0,0.06172839506172839,73.88888888888889,0)" xlink:href="#aU"/><use transform="matrix(0.06172839506172839,0,0,0.06172839506172839,86.23456790123457,0)" xlink:href="#bE"/><use transform="matrix(0.06172839506172839,0,0,0.06172839506172839,98.58024691358025,0)" xlink:href="#aS"/></g><path fill="#3a414a" d="M33 0v-248h34V0H33" id="bF"/><path fill="#3a414a" d="M135-143c-3-34-86-38-87 0 15 53 115 12 119 90S17 21 10-45l28-5c4 36 97 45 98 0-10-56-113-15-118-90-4-57 82-63 122-42 12 7 21 19 24 35" id="bG"/><g id="Q"><use transform="matrix(0.06172839506172839,0,0,0.06172839506172839,0,0)" xlink:href="#bF"/><use transform="matrix(0.06172839506172839,0,0,0.06172839506172839,6.172839506172839,0)" xlink:href="#bA"/><use transform="matrix(0.06172839506172839,0,0,0.06172839506172839,24.629629629629626,0)" xlink:href="#bx"/><use transform="matrix(0.06172839506172839,0,0,0.06172839506172839,36.9753086419753,0)" xlink:href="#bp"/><use transform="matrix(0.06172839506172839,0,0,0.06172839506172839,49.32098765432098,0)" xlink:href="#bj"/><use transform="matrix(0.06172839506172839,0,0,0.06172839506172839,61.66666666666666,0)" xlink:href="#bG"/></g><g id="R"><use transform="matrix(0.06172839506172839,0,0,0.06172839506172839,0,0)" xlink:href="#by"/><use transform="matrix(0.06172839506172839,0,0,0.06172839506172839,6.172839506172839,0)" xlink:href="#bm"/></g><path fill="#3a414a" d="M9 0v-24l116-142H16v-24h144v24L44-24h123V0H9" id="bH"/><g id="S"><use transform="matrix(0.06172839506172839,0,0,0.06172839506172839,0,0)" xlink:href="#bA"/><use transform="matrix(0.06172839506172839,0,0,0.06172839506172839,18.456790123456788,0)" xlink:href="#bj"/><use transform="matrix(0.06172839506172839,0,0,0.06172839506172839,30.80246913580247,0)" xlink:href="#by"/><use transform="matrix(0.06172839506172839,0,0,0.06172839506172839,36.97530864197531,0)" xlink:href="#bw"/><use transform="matrix(0.06172839506172839,0,0,0.06172839506172839,44.32098765432099,0)" xlink:href="#bz"/><use transform="matrix(0.06172839506172839,0,0,0.06172839506172839,49.19753086419753,0)" xlink:href="#bH"/><use transform="matrix(0.06172839506172839,0,0,0.06172839506172839,60.308641975308646,0)" xlink:href="#bj"/></g><path fill="#3a414a" d="M96-169c-40 0-48 33-48 73s9 75 48 75c24 0 41-14 43-38l32 2c-6 37-31 61-74 61-59 0-76-41-82-99-10-93 101-131 147-64 4 7 5 14 7 22l-32 3c-4-21-16-35-41-35" id="bI"/><path fill="#3a414a" d="M84 4C-5 8 30-112 23-190h32v120c0 31 7 50 39 49 72-2 45-101 50-169h31l1 190h-30c-1-10 1-25-2-33-11 22-28 36-60 37" id="bJ"/><g id="T"><use transform="matrix(0.06172839506172839,0,0,0.06172839506172839,0,0)" xlink:href="#bv"/><use transform="matrix(0.06172839506172839,0,0,0.06172839506172839,15.987654320987653,0)" xlink:href="#bx"/><use transform="matrix(0.06172839506172839,0,0,0.06172839506172839,28.333333333333332,0)" xlink:href="#bl"/><use transform="matrix(0.06172839506172839,0,0,0.06172839506172839,33.20987654320987,0)" xlink:href="#bI"/><use transform="matrix(0.06172839506172839,0,0,0.06172839506172839,44.32098765432099,0)" xlink:href="#bJ"/><use transform="matrix(0.06172839506172839,0,0,0.06172839506172839,56.666666666666664,0)" xlink:href="#bl"/><use transform="matrix(0.06172839506172839,0,0,0.06172839506172839,61.54320987654321,0)" xlink:href="#bx"/><use transform="matrix(0.06172839506172839,0,0,0.06172839506172839,73.88888888888889,0)" xlink:href="#by"/><use transform="matrix(0.06172839506172839,0,0,0.06172839506172839,80.06172839506172,0)" xlink:href="#bj"/></g><g id="U"><use transform="matrix(0.06172839506172839,0,0,0.06172839506172839,0,0)" xlink:href="#bA"/><use transform="matrix(0.06172839506172839,0,0,0.06172839506172839,18.456790123456788,0)" xlink:href="#bj"/><use transform="matrix(0.06172839506172839,0,0,0.06172839506172839,30.80246913580247,0)" xlink:href="#by"/><use transform="matrix(0.06172839506172839,0,0,0.06172839506172839,36.97530864197531,0)" xlink:href="#bw"/><use transform="matrix(0.06172839506172839,0,0,0.06172839506172839,44.32098765432099,0)" xlink:href="#bz"/><use transform="matrix(0.06172839506172839,0,0,0.06172839506172839,49.19753086419753,0)" xlink:href="#bI"/><use transform="matrix(0.06172839506172839,0,0,0.06172839506172839,60.308641975308646,0)" xlink:href="#bG"/></g><g id="V"><use transform="matrix(0.06172839506172839,0,0,0.06172839506172839,0,0)" xlink:href="#bc"/><use transform="matrix(0.06172839506172839,0,0,0.06172839506172839,18.456790123456788,0)" xlink:href="#aR"/><use transform="matrix(0.06172839506172839,0,0,0.06172839506172839,30.80246913580247,0)" xlink:href="#aT"/><use transform="matrix(0.06172839506172839,0,0,0.06172839506172839,36.97530864197531,0)" xlink:href="#aY"/><use transform="matrix(0.06172839506172839,0,0,0.06172839506172839,44.32098765432099,0)" xlink:href="#bf"/><use transform="matrix(0.06172839506172839,0,0,0.06172839506172839,49.19753086419753,0)" xlink:href="#bD"/><use transform="matrix(0.06172839506172839,0,0,0.06172839506172839,60.308641975308646,0)" xlink:href="#aS"/></g><g id="W"><use transform="matrix(0.06172839506172839,0,0,0.06172839506172839,0,0)" xlink:href="#av"/><use transform="matrix(0.06172839506172839,0,0,0.06172839506172839,12.345679012345679,0)" xlink:href="#ar"/><use transform="matrix(0.06172839506172839,0,0,0.06172839506172839,24.691358024691358,0)" xlink:href="#aj"/><use transform="matrix(0.06172839506172839,0,0,0.06172839506172839,37.03703703703704,0)" xlink:href="#ap"/></g><path fill="#333" d="M115-194c55 1 70 41 70 98S169 2 115 4C84 4 66-9 55-30l1 105H24l-1-265h31l2 30c10-21 28-34 59-34zm-8 174c40 0 45-34 45-75s-6-73-45-74c-42 0-51 32-51 76 0 43 10 73 51 73" id="bK"/><g id="X"><use transform="matrix(0.06172839506172839,0,0,0.06172839506172839,0,0)" xlink:href="#bK"/><use transform="matrix(0.06172839506172839,0,0,0.06172839506172839,12.345679012345679,0)" xlink:href="#aE"/><use transform="matrix(0.06172839506172839,0,0,0.06172839506172839,19.691358024691358,0)" xlink:href="#al"/><use transform="matrix(0.06172839506172839,0,0,0.06172839506172839,32.03703703703704,0)" xlink:href="#aq"/><use transform="matrix(0.06172839506172839,0,0,0.06172839506172839,38.20987654320988,0)" xlink:href="#aE"/><use transform="matrix(0.06172839506172839,0,0,0.06172839506172839,45.55555555555556,0)" xlink:href="#aj"/><use transform="matrix(0.06172839506172839,0,0,0.06172839506172839,57.901234567901234,0)" xlink:href="#ao"/><use transform="matrix(0.06172839506172839,0,0,0.06172839506172839,62.77777777777778,0)" xlink:href="#as"/><use transform="matrix(0.06172839506172839,0,0,0.06172839506172839,75.12345679012346,0)" xlink:href="#al"/><use transform="matrix(0.06172839506172839,0,0,0.06172839506172839,87.46913580246914,0)" xlink:href="#ap"/></g><g id="Y"><use transform="matrix(0.06172839506172839,0,0,0.06172839506172839,0,0)" xlink:href="#ai"/><use transform="matrix(0.06172839506172839,0,0,0.06172839506172839,18.456790123456788,0)" xlink:href="#ar"/><use transform="matrix(0.06172839506172839,0,0,0.06172839506172839,30.80246913580247,0)" xlink:href="#ap"/><use transform="matrix(0.06172839506172839,0,0,0.06172839506172839,43.148148148148145,0)" xlink:href="#al"/><use transform="matrix(0.06172839506172839,0,0,0.06172839506172839,55.49382716049382,0)" xlink:href="#an"/></g><g id="Z"><use transform="matrix(0.06172839506172839,0,0,0.06172839506172839,0,0)" xlink:href="#aI"/><use transform="matrix(0.06172839506172839,0,0,0.06172839506172839,14.814814814814813,0)" xlink:href="#as"/><use transform="matrix(0.06172839506172839,0,0,0.06172839506172839,27.160493827160494,0)" xlink:href="#aq"/><use transform="matrix(0.06172839506172839,0,0,0.06172839506172839,33.333333333333336,0)" xlink:href="#al"/><use transform="matrix(0.06172839506172839,0,0,0.06172839506172839,45.67901234567901,0)" xlink:href="#aE"/></g><g id="aa"><use transform="matrix(0.06172839506172839,0,0,0.06172839506172839,0,0)" xlink:href="#aq"/><use transform="matrix(0.06172839506172839,0,0,0.06172839506172839,6.172839506172839,0)" xlink:href="#aE"/><use transform="matrix(0.06172839506172839,0,0,0.06172839506172839,13.518518518518519,0)" xlink:href="#aj"/><use transform="matrix(0.06172839506172839,0,0,0.06172839506172839,25.864197530864196,0)" xlink:href="#ao"/><use transform="matrix(0.06172839506172839,0,0,0.06172839506172839,30.74074074074074,0)" xlink:href="#as"/><use transform="matrix(0.06172839506172839,0,0,0.06172839506172839,43.08641975308642,0)" xlink:href="#ao"/><use transform="matrix(0.06172839506172839,0,0,0.06172839506172839,47.96296296296296,0)" xlink:href="#as"/><use transform="matrix(0.06172839506172839,0,0,0.06172839506172839,60.30864197530864,0)" xlink:href="#ak"/></g><g id="ab"><use transform="matrix(0.06172839506172839,0,0,0.06172839506172839,0,0)" xlink:href="#ay"/><use transform="matrix(0.06172839506172839,0,0,0.06172839506172839,11.11111111111111,0)" xlink:href="#bK"/><use transform="matrix(0.06172839506172839,0,0,0.06172839506172839,23.45679012345679,0)" xlink:href="#al"/><use transform="matrix(0.06172839506172839,0,0,0.06172839506172839,35.80246913580247,0)" xlink:href="#aG"/><use transform="matrix(0.06172839506172839,0,0,0.06172839506172839,46.91358024691358,0)" xlink:href="#ay"/></g><g id="ac"><use transform="matrix(0.06172839506172839,0,0,0.06172839506172839,0,0)" xlink:href="#aL"/><use transform="matrix(0.06172839506172839,0,0,0.06172839506172839,12.716049382716047,0)" xlink:href="#aE"/><use transform="matrix(0.06172839506172839,0,0,0.06172839506172839,20.061728395061728,0)" xlink:href="#aj"/><use transform="matrix(0.06172839506172839,0,0,0.06172839506172839,32.407407407407405,0)" xlink:href="#ao"/><use transform="matrix(0.06172839506172839,0,0,0.06172839506172839,37.28395061728395,0)" xlink:href="#as"/></g><use transform="matrix(0.06172839506172839,0,0,0.06172839506172839,0,0)" xlink:href="#aj" id="ad"/><g id="ae"><use transform="matrix(0.06172839506172839,0,0,0.06172839506172839,0,0)" xlink:href="#as"/><use transform="matrix(0.06172839506172839,0,0,0.06172839506172839,12.345679012345679,0)" xlink:href="#al"/><use transform="matrix(0.06172839506172839,0,0,0.06172839506172839,24.691358024691358,0)" xlink:href="#aA"/></g><g id="af"><use transform="matrix(0.06172839506172839,0,0,0.06172839506172839,0,0)" xlink:href="#by"/><use transform="matrix(0.06172839506172839,0,0,0.06172839506172839,6.172839506172839,0)" xlink:href="#bw"/><use transform="matrix(0.06172839506172839,0,0,0.06172839506172839,13.518518518518519,0)" xlink:href="#bx"/><use transform="matrix(0.06172839506172839,0,0,0.06172839506172839,25.864197530864196,0)" xlink:href="#bz"/><use transform="matrix(0.06172839506172839,0,0,0.06172839506172839,30.74074074074074,0)" xlink:href="#bq"/></g><g id="ag"><use transform="matrix(0.06172839506172839,0,0,0.06172839506172839,0,0)" xlink:href="#bk"/><use transform="matrix(0.06172839506172839,0,0,0.06172839506172839,12.345679012345679,0)" xlink:href="#bw"/><use transform="matrix(0.06172839506172839,0,0,0.06172839506172839,19.691358024691358,0)" xlink:href="#bj"/><use transform="matrix(0.06172839506172839,0,0,0.06172839506172839,32.03703703703704,0)" xlink:href="#bB"/><use transform="matrix(0.06172839506172839,0,0,0.06172839506172839,44.382716049382715,0)" xlink:href="#bz"/><use transform="matrix(0.06172839506172839,0,0,0.06172839506172839,49.25925925925926,0)" xlink:href="#bI"/><use transform="matrix(0.06172839506172839,0,0,0.06172839506172839,60.37037037037037,0)" xlink:href="#by"/></g></defs></g></svg>